{"glyphs":{"0":{"ha":1465,"x_min":50,"x_max":1415,"o":"m 1415 597 q 1325 250 1415 411 q 1083 -1 1236 94 l 1042 -1 q 1282 250 1193 94 q 1372 597 1372 411 q 1282 944 1372 783 q 1043 1197 1194 1100 l 1085 1197 q 1325 944 1236 1100 q 1415 597 1415 783 m 1279 597 q 1098 164 1279 344 q 663 -17 917 -17 q 229 163 408 -17 q 50 597 50 343 q 229 1033 50 851 q 663 1214 408 1214 q 1098 1033 917 1214 q 1279 597 1279 851 m 1172 597 q 1023 958 1172 808 q 663 1107 874 1107 q 303 958 453 1107 q 154 597 154 808 q 303 238 154 388 q 663 89 453 89 q 1023 238 874 89 q 1172 597 1172 388 m 715 993 q 437 863 551 983 q 322 576 322 742 q 492 242 322 368 q 685 183 583 189 l 663 183 q 372 305 493 183 q 250 597 250 426 q 371 892 250 769 q 663 1014 492 1014 q 715 993 671 1014 z "},"1":{"ha":385,"x_min":50,"x_max":335,"o":"m 335 1199 l 293 0 l 250 0 l 250 1199 l 335 1199 m 154 0 l 50 0 l 50 1199 l 154 1199 l 154 0 z "},"2":{"ha":950,"x_min":50,"x_max":900,"o":"m 900 758 q 746 385 900 543 l 565 200 l 524 200 l 703 385 q 860 758 860 547 q 797 1006 860 889 q 626 1199 735 1122 l 668 1199 q 838 1007 776 1124 q 900 758 900 890 m 563 751 q 488 912 557 846 q 324 978 418 978 q 192 938 251 978 l 175 964 q 324 1008 267 1008 q 492 938 422 1008 q 563 768 563 867 l 563 751 m 763 758 q 636 449 763 576 l 299 106 l 719 106 l 719 0 l 50 0 l 561 524 q 658 758 658 624 q 560 994 658 896 q 324 1092 461 1092 q 140 1038 222 1092 l 81 1125 q 324 1199 196 1199 q 633 1069 504 1199 q 763 758 763 940 m 847 0 l 804 0 l 804 200 l 847 200 l 847 0 z "},"3":{"ha":915,"x_min":50,"x_max":865,"o":"m 865 419 q 810 183 865 293 q 657 -3 754 72 l 615 -3 q 768 183 713 72 q 824 419 824 293 q 749 691 824 565 q 546 886 674 817 l 794 1196 l 838 1196 l 588 886 q 790 691 715 817 q 865 419 865 565 m 728 419 q 600 110 728 239 q 292 -18 472 -18 q 50 53 158 -18 l 110 140 q 292 86 192 86 q 526 184 428 86 q 624 419 624 282 q 526 654 624 557 q 292 751 428 751 l 182 751 l 454 1089 l 122 1089 l 122 1196 l 672 1196 l 390 844 q 633 690 539 810 q 728 419 728 571 z "},"4":{"ha":1100,"x_min":50,"x_max":1050,"o":"m 953 551 l 911 551 l 911 1196 l 953 1196 l 953 551 m 1050 257 l 1008 257 l 1008 551 l 1050 551 l 1050 257 m 924 351 l 815 351 l 815 0 l 711 0 l 711 351 l 50 351 l 713 1196 l 815 1196 l 815 457 l 924 457 l 924 351 m 953 0 l 911 0 l 911 257 l 953 257 l 953 0 m 711 457 l 711 1022 l 267 457 l 711 457 m 615 661 l 503 551 l 460 551 l 615 749 l 615 661 z "},"5":{"ha":914,"x_min":50,"x_max":864,"o":"m 864 419 q 808 183 864 293 q 657 -3 753 72 l 615 -3 q 767 183 711 72 q 822 419 822 294 q 715 738 822 596 q 438 931 608 881 l 436 1006 l 733 1006 l 733 1196 l 775 1196 l 775 975 l 482 975 l 481 931 q 757 738 650 881 q 864 419 864 596 m 728 419 q 599 110 728 239 q 290 -18 471 -18 q 50 53 157 -18 l 108 140 q 290 86 193 86 q 525 184 428 86 q 622 419 622 282 q 524 654 622 557 q 290 751 426 751 l 235 751 l 235 1196 l 649 1196 l 649 1089 l 344 1089 l 344 853 q 617 709 507 833 q 728 419 728 585 z "},"6":{"ha":1113,"x_min":50,"x_max":1063,"o":"m 1063 419 q 1007 183 1063 294 q 856 -3 951 72 l 813 -3 q 965 183 910 72 q 1021 419 1021 293 q 902 753 1021 607 q 601 939 783 899 l 808 1196 l 851 1196 l 643 939 q 944 753 826 899 q 1063 419 1063 607 m 926 419 q 798 110 926 239 q 489 -18 669 -18 q 179 110 308 -18 q 50 419 50 239 q 150 694 50 569 l 551 1196 l 686 1196 l 408 849 q 489 857 461 857 q 798 728 669 857 q 926 419 926 600 m 822 419 q 724 654 822 557 q 489 751 626 751 q 253 653 350 751 q 157 419 157 556 q 255 184 157 282 q 489 86 353 86 q 724 184 626 86 q 822 419 822 282 m 511 182 l 489 182 q 320 251 390 182 q 250 419 250 321 q 321 587 250 517 q 489 657 392 657 l 511 657 q 356 579 418 647 q 293 419 293 511 q 356 258 293 326 q 511 182 419 189 z "},"7":{"ha":797,"x_min":50,"x_max":747,"o":"m 747 1196 l 351 0 l 308 0 l 706 1196 l 747 1196 m 606 1196 l 211 0 l 100 0 l 460 1089 l 50 1089 l 50 1196 l 606 1196 z "},"8":{"ha":1113,"x_min":50,"x_max":1063,"o":"m 1063 419 q 1007 183 1063 293 q 854 -3 951 72 l 811 -3 q 965 183 908 72 q 1021 419 1021 293 q 958 669 1021 551 q 785 861 894 786 q 804 972 804 922 q 714 1196 804 1101 l 756 1196 q 846 972 846 1101 q 826 861 846 915 q 999 669 936 786 q 1063 419 1063 553 m 926 419 q 798 110 926 239 q 488 -18 669 -18 q 178 110 307 -18 q 50 419 50 239 q 126 664 50 553 q 325 825 201 775 q 267 972 267 886 q 332 1131 267 1065 q 488 1196 397 1196 q 644 1131 579 1196 q 710 972 710 1065 q 653 825 710 889 q 851 664 776 775 q 926 419 926 553 m 604 972 q 570 1055 604 1021 q 488 1089 536 1089 q 406 1055 440 1089 q 371 972 371 1021 q 407 889 371 921 q 489 857 443 857 q 570 891 536 857 q 604 972 604 925 m 821 419 q 723 654 821 557 q 488 751 625 751 q 255 653 353 751 q 157 419 157 556 q 253 184 157 282 q 488 86 350 86 q 723 184 625 86 q 821 419 821 282 m 508 972 q 488 951 508 951 q 467 972 467 951 q 488 996 467 996 q 508 972 508 996 m 508 182 l 488 182 q 320 251 390 182 q 250 419 250 321 q 320 587 250 517 q 488 657 390 657 l 508 657 q 356 579 418 647 q 293 419 293 511 q 356 258 293 326 q 508 182 418 189 z "},"9":{"ha":1111,"x_min":50,"x_max":1061,"o":"m 1061 769 q 942 424 1061 574 l 601 -3 l 558 -3 l 899 424 q 1018 769 1018 574 q 954 1011 1018 896 q 788 1196 893 1121 l 829 1196 q 997 1011 936 1121 q 1061 769 1061 896 m 925 758 q 828 481 925 601 l 438 -3 l 303 -3 l 569 326 q 488 321 532 321 q 178 449 307 321 q 50 758 50 578 q 178 1067 50 939 q 488 1196 307 1196 q 797 1067 668 1196 q 925 758 925 939 m 821 758 q 723 993 821 896 q 488 1090 625 1090 q 253 993 350 1090 q 157 758 157 896 q 253 523 157 621 q 488 425 350 425 q 723 523 625 425 q 821 758 821 621 m 508 521 q 485 519 497 519 q 319 590 389 519 q 250 758 250 661 q 320 928 250 860 q 493 996 390 996 q 507 996 500 996 q 354 921 415 990 q 293 758 293 851 q 355 597 293 665 q 508 521 417 528 z "}," ":{"ha":313,"x_min":0,"x_max":0,"o":""},"!":{"ha":342,"x_min":50,"x_max":292,"o":"m 292 196 l 50 196 l 50 217 l 250 217 l 250 1185 l 292 1185 l 292 196 m 156 258 l 50 258 l 50 1196 l 156 1196 l 156 258 m 292 0 l 250 0 l 250 153 l 292 153 l 292 0 m 156 0 l 50 0 l 50 153 l 156 153 l 156 0 z "},"\"":{"ha":496,"x_min":50,"x_max":446,"o":"m 446 1224 l 268 940 l 203 940 l 308 1224 l 446 1224 m 293 1224 l 115 940 l 50 940 l 156 1224 l 293 1224 z "},"#":{"ha":50,"x_min":0,"x_max":0,"o":""},"$":{"ha":657,"x_min":50,"x_max":607,"o":"m 607 988 l 451 846 l 450 883 l 564 988 q 450 1069 517 1042 l 450 1196 l 492 1196 l 492 1069 q 607 988 556 1043 m 525 403 q 440 171 525 271 l 440 -3 l 399 -3 l 399 171 q 483 403 483 271 q 399 643 483 538 l 399 818 l 440 818 l 440 643 q 525 403 525 538 m 449 978 l 371 907 q 308 944 349 933 l 308 607 q 392 403 392 508 q 308 208 392 283 l 308 -3 l 203 -3 l 203 150 q 122 139 154 139 l 122 243 q 203 264 165 243 l 203 565 q 100 681 107 672 q 50 824 50 751 q 92 956 50 896 q 203 1039 135 1017 l 203 1196 l 308 1196 l 308 1051 q 449 978 390 1040 m 203 724 l 203 921 q 154 824 154 883 q 203 724 154 776 z "},"%":{"ha":50,"x_min":0,"x_max":0,"o":""},"&":{"ha":1232,"x_min":50,"x_max":1182,"o":"m 614 1003 l 572 1003 l 572 1199 l 614 1199 l 614 1003 m 863 458 l 819 458 l 465 975 q 485 999 465 999 l 528 999 q 508 968 508 996 l 863 458 m 1182 0 l 1139 0 l 982 224 q 1019 422 1019 322 l 1063 422 q 1024 224 1063 321 l 1182 0 m 1022 0 l 894 0 l 807 124 q 488 -15 679 -15 q 178 113 307 -15 q 50 422 50 242 q 122 669 50 558 q 319 829 194 781 q 267 975 267 903 q 331 1133 267 1067 q 488 1199 396 1199 l 488 1092 q 406 1057 440 1092 q 371 975 371 1022 q 388 915 371 939 l 803 317 q 819 422 819 365 l 924 422 q 872 215 924 310 l 1022 0 m 746 213 l 382 740 q 215 621 276 708 q 154 422 154 533 q 252 187 154 285 q 488 89 350 89 q 746 213 644 89 m 508 185 l 488 185 q 319 255 389 185 q 250 424 250 325 q 349 622 250 553 l 364 600 q 292 424 292 538 q 354 262 292 332 q 508 185 417 192 z "},"'":{"ha":343,"x_min":50,"x_max":293,"o":"m 293 1224 l 115 940 l 50 940 l 156 1224 l 293 1224 z "},"(":{"ha":610,"x_min":50,"x_max":560,"o":"m 560 -19 l 463 -153 l 421 -153 l 518 -19 q 321 210 392 72 q 250 501 250 347 q 321 795 250 657 q 518 1024 392 933 l 419 1156 l 461 1156 l 560 1024 q 363 795 433 933 q 292 501 292 657 q 363 210 292 347 q 560 -19 433 72 m 421 -65 l 358 -150 q 131 142 213 -28 q 50 501 50 313 q 131 861 50 690 q 358 1153 213 1032 l 421 1068 q 226 815 294 963 q 157 501 157 667 q 226 189 157 338 q 421 -65 296 40 z "},")":{"ha":607,"x_min":50,"x_max":557,"o":"m 557 503 q 306 -153 557 132 l 263 -153 q 418 82 356 -49 q 515 503 515 288 q 264 1160 515 875 l 307 1160 q 463 925 406 1044 q 557 503 557 725 m 419 503 q 339 143 419 314 q 113 -147 258 -28 l 50 -62 q 246 191 176 43 q 315 503 315 339 q 246 815 315 667 q 51 1068 176 964 l 114 1153 q 339 863 258 1033 q 419 503 419 692 z "},"*":{"ha":511,"x_min":50,"x_max":461,"o":"m 461 954 l 326 946 l 347 811 l 256 910 l 165 811 l 186 946 l 50 954 l 168 1021 l 90 1133 l 217 1083 l 256 1211 l 294 1083 l 421 1133 l 343 1021 l 461 954 z "},"+":{"ha":50,"x_min":0,"x_max":0,"o":""},",":{"ha":406,"x_min":50,"x_max":356,"o":"m 356 -15 l 226 -133 l 207 -112 l 314 -15 l 314 153 l 356 153 l 356 -15 m 219 28 l 121 -62 l 50 15 l 114 74 l 114 153 l 219 153 l 219 28 z "},"-":{"ha":490,"x_min":50,"x_max":440,"o":"m 440 428 l 129 428 l 129 450 l 408 450 l 408 722 l 440 722 l 440 428 m 322 543 l 50 543 l 50 649 l 322 649 l 322 543 z "},".":{"ha":342,"x_min":50,"x_max":292,"o":"m 292 0 l 250 0 l 250 153 l 292 153 l 292 0 m 156 0 l 50 0 l 50 153 l 156 153 l 156 0 z "},"/":{"ha":583,"x_min":50,"x_max":533,"o":"m 533 1167 l 151 -79 l 50 -81 l 432 1165 l 533 1167 z "},":":{"ha":346,"x_min":50,"x_max":296,"o":"m 293 365 l 50 365 l 50 396 l 251 396 l 251 626 l 293 626 l 293 365 m 157 471 l 51 471 l 51 626 l 157 626 l 157 471 m 296 0 l 254 0 l 254 153 l 296 153 l 296 0 m 160 0 l 54 0 l 54 153 l 160 153 l 160 0 z "},";":{"ha":406,"x_min":50,"x_max":356,"o":"m 356 365 l 113 365 l 113 396 l 314 396 l 314 626 l 356 626 l 356 365 m 219 471 l 114 471 l 114 626 l 219 626 l 219 471 m 356 -15 l 226 -133 l 207 -112 l 314 -15 l 314 153 l 356 153 l 356 -15 m 219 28 l 121 -62 l 50 15 l 114 74 l 114 153 l 219 153 l 219 28 z "},"<":{"ha":50,"x_min":0,"x_max":0,"o":""},"=":{"ha":50,"x_min":0,"x_max":0,"o":""},">":{"ha":50,"x_min":0,"x_max":0,"o":""},"?":{"ha":743,"x_min":50,"x_max":693,"o":"m 388 947 q 307 996 363 996 q 239 965 267 996 l 213 992 q 297 1038 264 1038 q 361 1011 335 1038 q 388 947 388 985 m 693 903 q 592 644 693 757 l 419 454 q 371 335 371 400 l 371 185 l 128 185 l 128 217 l 329 217 l 329 335 q 376 454 329 403 l 550 644 q 651 903 651 756 q 518 1196 651 1078 l 560 1196 q 693 903 693 1078 m 556 903 q 481 708 556 790 l 307 518 q 235 335 235 439 l 235 258 l 129 258 l 129 335 q 229 589 129 478 l 401 779 q 451 903 451 835 q 397 1035 451 981 q 265 1089 343 1089 q 128 1029 183 1089 l 50 1100 q 265 1196 135 1196 q 470 1110 385 1196 q 556 903 556 1024 m 371 -3 l 329 -3 l 329 153 l 371 153 l 371 -3 m 235 -3 l 129 -3 l 129 153 l 235 153 l 235 -3 z "},"@":{"ha":1456,"x_min":50,"x_max":1406,"o":"m 1406 579 q 1325 297 1406 410 q 1071 169 1235 169 q 1049 171 1060 169 q 1074 172 1057 171 q 1304 313 1226 193 q 1374 579 1374 417 q 1278 935 1374 769 q 1017 1196 1182 1100 l 1049 1196 q 1310 935 1214 1100 q 1406 579 1406 769 m 1049 468 l 1038 464 l 1032 464 q 994 497 1001 461 l 958 694 q 776 979 922 888 q 846 956 840 960 q 939 838 896 917 q 990 696 978 764 l 1025 497 q 1049 468 1029 476 m 1279 579 q 1225 364 1279 447 q 1036 265 1163 265 q 886 315 968 265 q 664 219 803 219 q 476 283 557 219 q 389 457 389 353 q 475 632 389 563 q 664 696 556 696 q 760 681 717 696 q 701 786 743 746 q 592 831 656 831 q 446 751 506 831 l 363 817 q 592 938 456 938 q 751 882 678 938 q 867 679 843 813 l 901 481 q 918 435 906 454 q 1033 369 958 369 q 1174 579 1174 369 q 1024 940 1174 790 q 664 1089 875 1089 q 304 939 454 1089 q 154 579 154 789 q 304 219 154 369 q 664 69 454 69 q 899 128 792 69 l 957 39 q 664 -35 822 -35 q 230 145 410 -35 q 50 579 50 325 q 230 1015 50 833 q 664 1196 410 1196 q 1099 1015 918 1196 q 1279 579 1279 833 m 1081 -3 l 1049 -3 l 921 189 q 961 179 938 183 l 1081 -3 m 358 819 q 281 572 281 715 q 289 499 281 539 q 294 475 292 490 q 294 457 294 475 q 307 369 294 417 q 250 579 250 464 q 339 835 250 724 l 358 819 m 818 400 q 794 476 804 429 q 782 554 789 515 q 664 592 731 592 q 551 556 601 592 q 494 457 494 517 q 551 358 494 397 q 664 324 601 324 q 818 400 771 324 m 681 419 l 664 419 q 619 429 644 419 q 589 457 589 442 q 619 486 589 474 q 664 496 643 496 q 681 494 675 496 q 642 482 664 493 q 619 457 619 471 q 681 419 619 431 z "},"A":{"ha":1167,"x_min":50,"x_max":1117,"o":"m 1117 -1 l 1075 -1 l 625 1196 l 668 1196 l 1117 -1 m 974 0 l 863 0 l 818 122 l 207 122 l 163 0 l 50 0 l 513 1257 l 974 0 m 315 26 l 304 -1 l 263 -1 l 274 26 l 315 26 m 778 226 l 513 950 l 246 226 l 778 226 m 563 542 l 422 322 l 381 322 l 513 678 l 563 542 z "},"B":{"ha":883,"x_min":50,"x_max":833,"o":"m 833 217 q 743 -1 833 89 l 701 -1 q 792 217 792 89 q 701 436 792 343 q 763 699 763 558 q 688 988 763 853 q 490 1197 615 1118 l 533 1197 q 731 988 658 1118 q 806 699 806 853 q 743 436 806 561 q 833 217 833 343 m 696 217 q 633 64 696 128 q 481 0 569 0 l 50 0 l 50 1197 l 171 1197 q 523 1051 376 1197 q 669 699 669 904 q 576 411 669 540 q 696 217 696 350 m 563 699 q 448 977 563 861 q 171 1093 333 1093 l 156 1093 l 153 307 l 171 307 q 448 422 333 307 q 563 699 563 538 m 592 217 q 566 288 592 257 q 500 326 540 319 q 171 201 357 201 q 153 203 160 201 l 153 104 l 481 104 q 558 138 525 104 q 592 217 592 171 m 328 964 l 290 426 q 249 411 289 426 l 251 986 q 328 964 283 978 z "},"C":{"ha":1182,"x_min":50,"x_max":1132,"o":"m 1104 1072 l 1019 946 q 989 964 1003 957 l 1075 1093 l 1104 1072 m 1132 83 l 1101 64 l 989 233 q 1019 251 1011 244 l 1132 83 m 1003 85 q 665 -17 851 -17 q 231 164 411 -17 q 50 597 50 344 q 231 1033 50 851 q 665 1214 411 1214 q 1003 1113 847 1214 l 946 1024 q 665 1107 821 1107 q 305 958 454 1107 q 156 597 156 808 q 306 238 156 388 q 665 89 456 89 q 946 172 818 89 l 1003 85 m 718 993 q 438 863 553 983 q 324 576 324 743 q 494 242 324 368 q 688 183 583 189 l 665 183 q 453 242 553 183 q 305 391 360 296 q 250 597 250 486 q 372 892 250 769 q 665 1014 494 1014 q 718 993 674 1014 z "},"D":{"ha":817,"x_min":50,"x_max":767,"o":"m 767 599 q 676 253 767 415 q 431 -1 585 92 l 389 -1 q 634 253 543 92 q 725 599 725 415 q 635 942 725 781 q 394 1197 546 1103 l 438 1197 q 677 942 588 1103 q 767 599 767 781 m 631 599 q 482 199 631 374 q 106 3 329 19 l 50 -1 l 50 1201 l 106 1197 q 482 1001 329 1181 q 631 599 631 826 m 525 599 q 421 907 525 767 q 154 1083 317 1047 l 154 117 q 421 292 317 153 q 525 599 525 431 m 317 896 l 292 289 q 271 273 285 283 q 250 257 257 263 l 250 943 q 317 896 276 926 z "},"E":{"ha":750,"x_min":50,"x_max":700,"o":"m 660 972 l 401 972 l 250 554 l 250 1000 l 618 1000 l 618 1197 l 660 1197 l 660 972 m 572 0 l 50 0 l 50 1197 l 531 1197 l 531 1093 l 157 1093 l 157 458 l 533 458 l 533 354 l 157 354 l 157 104 l 572 104 l 572 0 m 660 258 l 293 258 l 293 200 l 250 200 l 250 286 l 618 286 l 618 554 l 660 554 l 660 258 m 700 -1 l 657 -1 l 657 200 l 700 200 l 700 -1 z "},"F":{"ha":710,"x_min":50,"x_max":660,"o":"m 656 972 l 396 972 l 244 554 l 244 1000 l 613 1000 l 613 1197 l 656 1197 l 656 972 m 532 354 l 154 354 l 154 0 l 50 0 l 50 1197 l 528 1197 l 528 1093 l 154 1093 l 154 458 l 532 458 l 532 354 m 660 258 l 292 258 l 292 0 l 250 0 l 250 286 l 617 286 l 617 554 l 660 554 l 660 258 z "},"G":{"ha":1214,"x_min":50,"x_max":1164,"o":"m 1113 1085 l 1019 946 q 1006 955 1015 949 q 990 964 996 961 l 1082 1104 l 1113 1085 m 1164 50 q 1082 -1 1138 32 l 1039 -1 q 1121 50 1074 18 l 1121 528 l 1164 528 l 1164 50 m 1026 100 q 664 -17 844 -17 q 231 164 411 -17 q 50 597 50 344 q 231 1033 50 851 q 664 1214 411 1214 q 1003 1113 847 1214 l 944 1024 q 664 1107 819 1107 q 304 958 454 1107 q 154 597 154 808 q 304 238 154 388 q 664 89 454 89 q 922 157 801 89 l 922 328 l 656 328 l 656 433 l 1026 433 l 1026 100 m 717 993 q 438 863 553 983 q 324 576 324 742 q 493 242 324 368 q 688 183 585 189 l 664 183 q 451 242 549 183 q 305 392 360 297 q 250 597 250 486 q 372 892 250 769 q 664 1014 493 1014 q 717 993 672 1014 z "},"H":{"ha":1239,"x_min":50,"x_max":1189,"o":"m 1189 1197 l 1147 0 l 1104 0 l 1104 1197 l 1189 1197 m 335 1197 l 303 528 l 250 528 l 250 1197 l 335 1197 m 1010 0 l 904 0 l 904 328 l 156 328 l 156 0 l 50 0 l 50 1197 l 156 1197 l 156 433 l 904 433 l 904 1197 l 1010 1197 l 1010 0 m 828 206 l 301 206 l 292 0 l 250 0 l 250 233 l 828 233 l 828 206 z "},"I":{"ha":385,"x_min":50,"x_max":335,"o":"m 335 1199 l 293 0 l 250 0 l 250 1199 l 335 1199 m 154 0 l 50 0 l 50 1199 l 154 1199 l 154 0 z "},"J":{"ha":556,"x_min":50,"x_max":506,"o":"m 506 1197 l 464 275 q 338 -1 456 103 l 296 -1 q 421 275 421 110 l 421 1197 l 506 1197 m 326 275 q 245 81 326 161 q 50 0 164 0 l 50 104 q 171 155 121 104 q 221 275 221 206 l 221 1197 l 326 1197 l 326 275 z "},"K":{"ha":1078,"x_min":50,"x_max":1028,"o":"m 1028 1197 l 522 519 l 950 -1 l 908 -1 l 481 519 l 985 1197 l 1028 1197 m 339 1197 l 296 763 l 253 707 l 254 1197 l 339 1197 m 867 1197 l 360 515 l 786 0 l 651 0 l 296 429 l 156 243 l 156 0 l 50 0 l 51 1197 l 160 1197 l 158 421 l 738 1197 l 867 1197 m 321 251 l 294 213 l 294 0 l 250 0 l 251 213 l 300 276 l 321 251 z "},"L":{"ha":729,"x_min":50,"x_max":679,"o":"m 333 1197 l 292 200 l 249 200 l 249 1197 l 333 1197 m 551 0 l 50 0 l 50 1197 l 154 1197 l 154 104 l 551 104 l 551 0 m 679 -1 l 636 -1 l 636 200 l 679 200 l 679 -1 z "},"M":{"ha":1329,"x_min":50,"x_max":1279,"o":"m 1279 0 l 1240 0 l 1240 1117 l 1279 1117 l 1279 0 m 1153 0 l 1054 0 l 1054 849 l 601 -17 l 149 849 l 149 0 l 50 0 l 50 1246 l 601 194 l 1153 1246 l 1153 0 m 621 421 l 601 383 l 204 1117 l 283 1117 l 621 421 m 965 414 l 750 -1 l 710 -1 l 965 489 l 965 414 m 319 335 l 276 0 l 238 0 l 238 489 l 319 335 z "},"N":{"ha":1169,"x_min":50,"x_max":1119,"o":"m 1119 -1 l 1078 -1 l 1078 1168 l 1119 1168 l 1119 -1 m 792 476 l 222 1168 l 263 1168 l 792 526 l 792 476 m 986 -72 l 153 953 l 153 0 l 50 0 l 50 1240 l 883 215 l 883 1168 l 986 1168 l 986 -72 m 342 575 l 286 0 l 246 0 l 246 693 l 342 575 z "},"O":{"ha":1465,"x_min":50,"x_max":1415,"o":"m 1415 597 q 1325 250 1415 411 q 1083 -1 1236 94 l 1042 -1 q 1282 250 1193 94 q 1372 597 1372 411 q 1282 944 1372 783 q 1043 1197 1194 1100 l 1085 1197 q 1325 944 1236 1100 q 1415 597 1415 783 m 1279 597 q 1098 164 1279 344 q 663 -17 917 -17 q 229 163 408 -17 q 50 597 50 343 q 229 1033 50 851 q 663 1214 408 1214 q 1098 1033 917 1214 q 1279 597 1279 851 m 1172 597 q 1023 958 1172 808 q 663 1107 874 1107 q 303 958 453 1107 q 154 597 154 808 q 303 238 154 388 q 663 89 453 89 q 1023 238 874 89 q 1172 597 1172 388 m 715 993 q 437 863 551 983 q 322 576 322 742 q 492 242 322 368 q 685 183 583 189 l 663 183 q 372 305 493 183 q 250 597 250 426 q 371 892 250 769 q 663 1014 492 1014 q 715 993 671 1014 z "},"P":{"ha":857,"x_min":50,"x_max":807,"o":"m 807 699 q 659 308 807 475 q 293 113 511 140 l 293 0 l 250 0 l 250 113 q 616 308 468 140 q 764 699 764 475 q 690 986 764 854 q 492 1197 617 1118 l 535 1197 q 733 986 660 1118 q 807 699 807 854 m 671 699 q 524 347 671 493 q 172 201 378 201 q 154 203 160 201 l 154 0 l 50 0 l 50 1197 l 172 1197 q 524 1051 378 1197 q 671 699 671 904 m 567 699 q 451 977 567 861 q 172 1093 335 1093 l 157 1093 l 156 307 l 172 307 q 451 422 335 307 q 567 699 567 538 m 344 947 l 294 426 q 273 419 288 424 q 251 411 258 414 l 253 986 q 344 947 283 978 z "},"Q":{"ha":1467,"x_min":50,"x_max":1417,"o":"m 1417 597 q 1196 85 1417 294 l 1235 21 l 1197 -1 l 1154 -1 l 1193 21 l 1153 85 q 1374 597 1374 294 q 1283 944 1374 783 q 1044 1197 1196 1101 l 1086 1197 q 1326 944 1238 1100 q 1417 597 1417 783 m 1281 597 q 1213 319 1281 449 q 1031 104 1146 190 l 1113 -29 l 1024 -83 l 942 50 q 664 -17 813 -17 q 231 164 411 -17 q 50 597 50 344 q 231 1033 50 851 q 664 1214 411 1214 q 1099 1033 918 1214 q 1281 597 1281 851 m 1175 597 q 1025 958 1175 808 q 664 1107 875 1107 q 304 958 454 1107 q 154 597 154 808 q 304 238 154 388 q 664 89 454 89 q 885 139 782 89 l 810 261 l 899 317 l 975 193 q 1122 372 1068 265 q 1175 597 1175 478 m 718 993 q 439 863 554 983 q 324 576 324 742 q 493 242 324 368 q 686 183 585 189 l 664 183 q 451 242 549 183 q 305 392 360 297 q 250 597 250 486 q 372 892 250 769 q 664 1014 493 1014 q 718 993 672 1014 z "},"R":{"ha":858,"x_min":50,"x_max":808,"o":"m 808 699 q 754 452 808 568 q 604 254 700 336 l 750 21 l 608 -65 l 567 -65 l 707 21 l 561 254 q 712 452 657 336 q 767 699 767 568 q 692 988 767 853 q 493 1197 618 1118 l 536 1197 q 733 988 661 1118 q 808 699 808 853 m 671 699 q 608 458 671 569 q 438 278 544 346 l 586 35 l 497 -19 l 343 232 q 174 201 258 201 q 154 203 161 201 l 154 0 l 50 0 l 50 1197 l 174 1197 q 525 1051 379 1197 q 671 699 671 904 m 304 114 q 299 114 301 114 q 293 113 294 113 l 293 0 l 250 0 l 250 113 l 300 121 l 304 114 m 567 699 q 451 977 567 861 q 174 1093 335 1093 l 154 1093 l 154 307 l 174 307 q 451 422 335 307 q 567 699 567 538 m 343 947 l 293 426 q 272 419 286 424 q 250 411 257 414 l 251 986 q 343 947 282 978 z "},"S":{"ha":743,"x_min":50,"x_max":693,"o":"m 603 997 q 560 993 581 997 l 560 1197 l 603 1197 l 603 997 m 693 290 q 560 -1 693 114 l 518 -1 q 651 290 651 114 q 551 551 651 442 l 379 740 q 331 860 331 794 q 372 959 331 921 q 474 997 413 997 l 519 997 l 519 992 q 407 839 407 964 q 449 740 407 789 l 608 551 q 693 290 693 451 m 557 290 q 472 85 557 171 q 267 0 386 0 q 50 96 138 0 l 129 167 q 267 104 185 104 q 397 159 343 104 q 451 290 451 214 q 403 417 451 363 l 231 607 q 131 860 131 718 q 231 1100 131 1003 q 475 1197 332 1197 l 475 1093 q 305 1026 375 1093 q 235 860 235 960 q 307 676 235 756 l 481 488 q 557 290 557 404 z "},"T":{"ha":1022,"x_min":50,"x_max":972,"o":"m 972 997 l 929 997 l 929 1197 l 972 1197 l 972 997 m 858 997 l 638 888 l 638 0 l 594 0 l 594 997 l 858 997 m 297 954 l 50 954 l 50 997 l 297 997 l 297 954 m 844 1093 l 500 1093 l 500 0 l 396 0 l 396 1093 l 50 1093 l 50 1197 l 844 1197 l 844 1093 z "},"U":{"ha":1197,"x_min":50,"x_max":1147,"o":"m 1147 479 q 1075 203 1147 333 q 885 -1 1004 78 l 842 -1 q 1034 204 963 76 q 1106 479 1106 332 l 1106 1197 l 1147 1197 l 1147 479 m 1010 479 q 869 141 1010 282 q 531 0 728 0 q 191 141 332 0 q 50 479 50 282 l 50 1197 l 156 1197 l 156 479 q 265 215 156 325 q 531 104 375 104 q 794 215 683 104 q 906 479 906 325 l 906 1197 l 1010 1197 l 1010 479 m 551 200 l 531 200 q 332 282 415 200 q 249 479 249 364 l 249 1197 l 365 1197 l 292 479 q 367 290 292 371 q 551 200 443 210 z "},"V":{"ha":1185,"x_min":50,"x_max":1135,"o":"m 1135 1197 l 688 0 l 644 0 l 1093 1197 l 1135 1197 m 542 553 l 521 494 l 263 1197 l 378 1197 l 542 553 m 993 1197 l 521 -86 l 50 1197 l 163 1197 l 521 221 l 881 1197 l 993 1197 z "},"W":{"ha":1935,"x_min":50,"x_max":1885,"o":"m 1885 1199 l 1444 0 l 1403 0 l 1843 1199 l 1885 1199 m 1296 567 l 1274 506 l 1033 1199 l 1150 1199 l 1296 567 m 1742 1199 l 1269 -74 l 896 986 l 521 -74 l 50 1199 l 163 1199 l 519 228 l 896 1301 l 1271 228 l 1629 1199 l 1742 1199 m 538 567 l 518 506 l 263 1199 l 378 1199 l 538 567 m 917 640 l 690 0 l 647 0 l 896 701 l 917 640 z "},"X":{"ha":1276,"x_min":50,"x_max":1226,"o":"m 1226 0 l 1183 0 l 736 671 l 1086 1197 l 1129 1197 l 778 671 l 1226 0 m 582 967 l 560 935 l 385 1197 l 501 1197 l 582 967 m 1071 0 l 943 0 l 560 575 l 176 0 l 50 0 l 497 671 l 146 1197 l 271 1197 l 560 764 l 847 1197 l 975 1197 l 622 671 l 1071 0 m 599 351 l 332 0 l 289 0 l 560 406 l 599 351 z "},"Y":{"ha":1375,"x_min":50,"x_max":1325,"o":"m 1325 1197 l 665 -1 l 624 -1 l 1283 1197 l 1325 1197 m 719 785 l 706 756 l 315 1197 l 431 1197 l 719 785 m 1174 1197 l 518 0 l 397 0 l 668 493 l 50 1197 l 190 1197 l 722 592 l 1054 1197 l 1174 1197 z "},"Z":{"ha":1181,"x_min":50,"x_max":1131,"o":"m 1131 1197 l 464 200 l 422 200 l 1088 1197 l 1131 1197 m 590 1000 l 572 972 l 124 972 l 124 1000 l 590 1000 m 1081 -1 l 1038 -1 l 1038 200 l 1081 200 l 1081 -1 m 974 1197 l 246 104 l 953 104 l 953 0 l 50 0 l 778 1093 l 118 1093 l 118 1197 l 974 1197 z "},"[":{"ha":50,"x_min":0,"x_max":0,"o":""},"\\":{"ha":50,"x_min":0,"x_max":0,"o":""},"]":{"ha":50,"x_min":0,"x_max":0,"o":""},"^":{"ha":50,"x_min":0,"x_max":0,"o":""},"_":{"ha":694,"x_min":0,"x_max":693,"o":"m 693 -111 l 0 -111 l 0 -7 l 693 -7 l 693 -111 z "},"`":{"ha":431,"x_min":50,"x_max":381,"o":"m 381 1232 l 304 1232 l 50 1515 l 208 1515 l 381 1232 z "},"a":{"ha":1167,"x_min":50,"x_max":1117,"o":"m 1117 -1 l 1075 -1 l 625 1196 l 668 1196 l 1117 -1 m 974 0 l 863 0 l 818 122 l 207 122 l 163 0 l 50 0 l 513 1257 l 974 0 m 315 26 l 304 -1 l 263 -1 l 274 26 l 315 26 m 778 226 l 513 950 l 246 226 l 778 226 m 563 542 l 422 322 l 381 322 l 513 678 l 563 542 z "},"b":{"ha":883,"x_min":50,"x_max":833,"o":"m 833 217 q 743 -1 833 89 l 701 -1 q 792 217 792 89 q 701 436 792 343 q 763 699 763 558 q 688 988 763 853 q 490 1197 615 1118 l 533 1197 q 731 988 658 1118 q 806 699 806 853 q 743 436 806 561 q 833 217 833 343 m 696 217 q 633 64 696 128 q 481 0 569 0 l 50 0 l 50 1197 l 171 1197 q 523 1051 376 1197 q 669 699 669 904 q 576 411 669 540 q 696 217 696 350 m 563 699 q 448 977 563 861 q 171 1093 333 1093 l 156 1093 l 153 307 l 171 307 q 448 422 333 307 q 563 699 563 538 m 592 217 q 566 288 592 257 q 500 326 540 319 q 171 201 357 201 q 153 203 160 201 l 153 104 l 481 104 q 558 138 525 104 q 592 217 592 171 m 328 964 l 290 426 q 249 411 289 426 l 251 986 q 328 964 283 978 z "},"c":{"ha":1182,"x_min":50,"x_max":1132,"o":"m 1104 1072 l 1019 946 q 989 964 1003 957 l 1075 1093 l 1104 1072 m 1132 83 l 1101 64 l 989 233 q 1019 251 1011 244 l 1132 83 m 1003 85 q 665 -17 851 -17 q 231 164 411 -17 q 50 597 50 344 q 231 1033 50 851 q 665 1214 411 1214 q 1003 1113 847 1214 l 946 1024 q 665 1107 821 1107 q 305 958 454 1107 q 156 597 156 808 q 306 238 156 388 q 665 89 456 89 q 946 172 818 89 l 1003 85 m 718 993 q 438 863 553 983 q 324 576 324 743 q 494 242 324 368 q 688 183 583 189 l 665 183 q 453 242 553 183 q 305 391 360 296 q 250 597 250 486 q 372 892 250 769 q 665 1014 494 1014 q 718 993 674 1014 z "},"d":{"ha":817,"x_min":50,"x_max":767,"o":"m 767 599 q 676 253 767 415 q 431 -1 585 92 l 389 -1 q 634 253 543 92 q 725 599 725 415 q 635 942 725 781 q 394 1197 546 1103 l 438 1197 q 677 942 588 1103 q 767 599 767 781 m 631 599 q 482 199 631 374 q 106 3 329 19 l 50 -1 l 50 1201 l 106 1197 q 482 1001 329 1181 q 631 599 631 826 m 525 599 q 421 907 525 767 q 154 1083 317 1047 l 154 117 q 421 292 317 153 q 525 599 525 431 m 317 896 l 292 289 q 271 273 285 283 q 250 257 257 263 l 250 943 q 317 896 276 926 z "},"e":{"ha":750,"x_min":50,"x_max":700,"o":"m 660 972 l 401 972 l 250 554 l 250 1000 l 618 1000 l 618 1197 l 660 1197 l 660 972 m 572 0 l 50 0 l 50 1197 l 531 1197 l 531 1093 l 157 1093 l 157 458 l 533 458 l 533 354 l 157 354 l 157 104 l 572 104 l 572 0 m 660 258 l 293 258 l 293 200 l 250 200 l 250 286 l 618 286 l 618 554 l 660 554 l 660 258 m 700 -1 l 657 -1 l 657 200 l 700 200 l 700 -1 z "},"f":{"ha":710,"x_min":50,"x_max":660,"o":"m 656 972 l 396 972 l 244 554 l 244 1000 l 613 1000 l 613 1197 l 656 1197 l 656 972 m 532 354 l 154 354 l 154 0 l 50 0 l 50 1197 l 528 1197 l 528 1093 l 154 1093 l 154 458 l 532 458 l 532 354 m 660 258 l 292 258 l 292 0 l 250 0 l 250 286 l 617 286 l 617 554 l 660 554 l 660 258 z "},"g":{"ha":1214,"x_min":50,"x_max":1164,"o":"m 1113 1085 l 1019 946 q 1006 955 1015 949 q 990 964 996 961 l 1082 1104 l 1113 1085 m 1164 50 q 1082 -1 1138 32 l 1039 -1 q 1121 50 1074 18 l 1121 528 l 1164 528 l 1164 50 m 1026 100 q 664 -17 844 -17 q 231 164 411 -17 q 50 597 50 344 q 231 1033 50 851 q 664 1214 411 1214 q 1003 1113 847 1214 l 944 1024 q 664 1107 819 1107 q 304 958 454 1107 q 154 597 154 808 q 304 238 154 388 q 664 89 454 89 q 922 157 801 89 l 922 328 l 656 328 l 656 433 l 1026 433 l 1026 100 m 717 993 q 438 863 553 983 q 324 576 324 742 q 493 242 324 368 q 688 183 585 189 l 664 183 q 451 242 549 183 q 305 392 360 297 q 250 597 250 486 q 372 892 250 769 q 664 1014 493 1014 q 717 993 672 1014 z "},"h":{"ha":1239,"x_min":50,"x_max":1189,"o":"m 1189 1197 l 1147 0 l 1104 0 l 1104 1197 l 1189 1197 m 335 1197 l 303 528 l 250 528 l 250 1197 l 335 1197 m 1010 0 l 904 0 l 904 328 l 156 328 l 156 0 l 50 0 l 50 1197 l 156 1197 l 156 433 l 904 433 l 904 1197 l 1010 1197 l 1010 0 m 828 206 l 301 206 l 292 0 l 250 0 l 250 233 l 828 233 l 828 206 z "},"i":{"ha":385,"x_min":50,"x_max":335,"o":"m 335 1199 l 293 0 l 250 0 l 250 1199 l 335 1199 m 154 0 l 50 0 l 50 1199 l 154 1199 l 154 0 z "},"j":{"ha":556,"x_min":50,"x_max":506,"o":"m 506 1197 l 464 275 q 338 -1 456 103 l 296 -1 q 421 275 421 110 l 421 1197 l 506 1197 m 326 275 q 245 81 326 161 q 50 0 164 0 l 50 104 q 171 155 121 104 q 221 275 221 206 l 221 1197 l 326 1197 l 326 275 z "},"k":{"ha":1078,"x_min":50,"x_max":1028,"o":"m 1028 1197 l 522 519 l 950 -1 l 908 -1 l 481 519 l 985 1197 l 1028 1197 m 339 1197 l 296 763 l 253 707 l 254 1197 l 339 1197 m 867 1197 l 360 515 l 786 0 l 651 0 l 296 429 l 156 243 l 156 0 l 50 0 l 51 1197 l 160 1197 l 158 421 l 738 1197 l 867 1197 m 321 251 l 294 213 l 294 0 l 250 0 l 251 213 l 300 276 l 321 251 z "},"l":{"ha":729,"x_min":50,"x_max":679,"o":"m 333 1197 l 292 200 l 249 200 l 249 1197 l 333 1197 m 551 0 l 50 0 l 50 1197 l 154 1197 l 154 104 l 551 104 l 551 0 m 679 -1 l 636 -1 l 636 200 l 679 200 l 679 -1 z "},"m":{"ha":1329,"x_min":50,"x_max":1279,"o":"m 1279 0 l 1240 0 l 1240 1117 l 1279 1117 l 1279 0 m 1153 0 l 1054 0 l 1054 849 l 601 -17 l 149 849 l 149 0 l 50 0 l 50 1246 l 601 194 l 1153 1246 l 1153 0 m 621 421 l 601 383 l 204 1117 l 283 1117 l 621 421 m 965 414 l 750 -1 l 710 -1 l 965 489 l 965 414 m 319 335 l 276 0 l 238 0 l 238 489 l 319 335 z "},"n":{"ha":1169,"x_min":50,"x_max":1119,"o":"m 1119 -1 l 1078 -1 l 1078 1168 l 1119 1168 l 1119 -1 m 792 476 l 222 1168 l 263 1168 l 792 526 l 792 476 m 986 -72 l 153 953 l 153 0 l 50 0 l 50 1240 l 883 215 l 883 1168 l 986 1168 l 986 -72 m 342 575 l 286 0 l 246 0 l 246 693 l 342 575 z "},"o":{"ha":1465,"x_min":50,"x_max":1415,"o":"m 1415 597 q 1325 250 1415 411 q 1083 -1 1236 94 l 1042 -1 q 1282 250 1193 94 q 1372 597 1372 411 q 1282 944 1372 783 q 1043 1197 1194 1100 l 1085 1197 q 1325 944 1236 1100 q 1415 597 1415 783 m 1279 597 q 1098 164 1279 344 q 663 -17 917 -17 q 229 163 408 -17 q 50 597 50 343 q 229 1033 50 851 q 663 1214 408 1214 q 1098 1033 917 1214 q 1279 597 1279 851 m 1172 597 q 1023 958 1172 808 q 663 1107 874 1107 q 303 958 453 1107 q 154 597 154 808 q 303 238 154 388 q 663 89 453 89 q 1023 238 874 89 q 1172 597 1172 388 m 715 993 q 437 863 551 983 q 322 576 322 742 q 492 242 322 368 q 685 183 583 189 l 663 183 q 372 305 493 183 q 250 597 250 426 q 371 892 250 769 q 663 1014 492 1014 q 715 993 671 1014 z "},"p":{"ha":857,"x_min":50,"x_max":807,"o":"m 807 699 q 659 308 807 475 q 293 113 511 140 l 293 0 l 250 0 l 250 113 q 616 308 468 140 q 764 699 764 475 q 690 986 764 854 q 492 1197 617 1118 l 535 1197 q 733 986 660 1118 q 807 699 807 854 m 671 699 q 524 347 671 493 q 172 201 378 201 q 154 203 160 201 l 154 0 l 50 0 l 50 1197 l 172 1197 q 524 1051 378 1197 q 671 699 671 904 m 567 699 q 451 977 567 861 q 172 1093 335 1093 l 157 1093 l 156 307 l 172 307 q 451 422 335 307 q 567 699 567 538 m 344 947 l 294 426 q 273 419 288 424 q 251 411 258 414 l 253 986 q 344 947 283 978 z "},"q":{"ha":1467,"x_min":50,"x_max":1417,"o":"m 1417 597 q 1196 85 1417 294 l 1235 21 l 1197 -1 l 1154 -1 l 1193 21 l 1153 85 q 1374 597 1374 294 q 1283 944 1374 783 q 1044 1197 1196 1101 l 1086 1197 q 1326 944 1238 1100 q 1417 597 1417 783 m 1281 597 q 1213 319 1281 449 q 1031 104 1146 190 l 1113 -29 l 1024 -83 l 942 50 q 664 -17 813 -17 q 231 164 411 -17 q 50 597 50 344 q 231 1033 50 851 q 664 1214 411 1214 q 1099 1033 918 1214 q 1281 597 1281 851 m 1175 597 q 1025 958 1175 808 q 664 1107 875 1107 q 304 958 454 1107 q 154 597 154 808 q 304 238 154 388 q 664 89 454 89 q 885 139 782 89 l 810 261 l 899 317 l 975 193 q 1122 372 1068 265 q 1175 597 1175 478 m 718 993 q 439 863 554 983 q 324 576 324 742 q 493 242 324 368 q 686 183 585 189 l 664 183 q 451 242 549 183 q 305 392 360 297 q 250 597 250 486 q 372 892 250 769 q 664 1014 493 1014 q 718 993 672 1014 z "},"r":{"ha":858,"x_min":50,"x_max":808,"o":"m 808 699 q 754 452 808 568 q 604 254 700 336 l 750 21 l 608 -65 l 567 -65 l 707 21 l 561 254 q 712 452 657 336 q 767 699 767 568 q 692 988 767 853 q 493 1197 618 1118 l 536 1197 q 733 988 661 1118 q 808 699 808 853 m 671 699 q 608 458 671 569 q 438 278 544 346 l 586 35 l 497 -19 l 343 232 q 174 201 258 201 q 154 203 161 201 l 154 0 l 50 0 l 50 1197 l 174 1197 q 525 1051 379 1197 q 671 699 671 904 m 304 114 q 299 114 301 114 q 293 113 294 113 l 293 0 l 250 0 l 250 113 l 300 121 l 304 114 m 567 699 q 451 977 567 861 q 174 1093 335 1093 l 154 1093 l 154 307 l 174 307 q 451 422 335 307 q 567 699 567 538 m 343 947 l 293 426 q 272 419 286 424 q 250 411 257 414 l 251 986 q 343 947 282 978 z "},"s":{"ha":743,"x_min":50,"x_max":693,"o":"m 603 997 q 560 993 581 997 l 560 1197 l 603 1197 l 603 997 m 693 290 q 560 -1 693 114 l 518 -1 q 651 290 651 114 q 551 551 651 442 l 379 740 q 331 860 331 794 q 372 959 331 921 q 474 997 413 997 l 519 997 l 519 992 q 407 839 407 964 q 449 740 407 789 l 608 551 q 693 290 693 451 m 557 290 q 472 85 557 171 q 267 0 386 0 q 50 96 138 0 l 129 167 q 267 104 185 104 q 397 159 343 104 q 451 290 451 214 q 403 417 451 363 l 231 607 q 131 860 131 718 q 231 1100 131 1003 q 475 1197 332 1197 l 475 1093 q 305 1026 375 1093 q 235 860 235 960 q 307 676 235 756 l 481 488 q 557 290 557 404 z "},"t":{"ha":1022,"x_min":50,"x_max":972,"o":"m 972 997 l 929 997 l 929 1197 l 972 1197 l 972 997 m 858 997 l 638 888 l 638 0 l 594 0 l 594 997 l 858 997 m 297 954 l 50 954 l 50 997 l 297 997 l 297 954 m 844 1093 l 500 1093 l 500 0 l 396 0 l 396 1093 l 50 1093 l 50 1197 l 844 1197 l 844 1093 z "},"u":{"ha":1197,"x_min":50,"x_max":1147,"o":"m 1147 479 q 1075 203 1147 333 q 885 -1 1004 78 l 842 -1 q 1034 204 963 76 q 1106 479 1106 332 l 1106 1197 l 1147 1197 l 1147 479 m 1010 479 q 869 141 1010 282 q 531 0 728 0 q 191 141 332 0 q 50 479 50 282 l 50 1197 l 156 1197 l 156 479 q 265 215 156 325 q 531 104 375 104 q 794 215 683 104 q 906 479 906 325 l 906 1197 l 1010 1197 l 1010 479 m 551 200 l 531 200 q 332 282 415 200 q 249 479 249 364 l 249 1197 l 365 1197 l 292 479 q 367 290 292 371 q 551 200 443 210 z "},"v":{"ha":1185,"x_min":50,"x_max":1135,"o":"m 1135 1197 l 688 0 l 644 0 l 1093 1197 l 1135 1197 m 542 553 l 521 494 l 263 1197 l 378 1197 l 542 553 m 993 1197 l 521 -86 l 50 1197 l 163 1197 l 521 221 l 881 1197 l 993 1197 z "},"w":{"ha":1935,"x_min":50,"x_max":1885,"o":"m 1885 1199 l 1444 0 l 1403 0 l 1843 1199 l 1885 1199 m 1296 567 l 1274 506 l 1033 1199 l 1150 1199 l 1296 567 m 1742 1199 l 1269 -74 l 896 986 l 521 -74 l 50 1199 l 163 1199 l 519 228 l 896 1301 l 1271 228 l 1629 1199 l 1742 1199 m 538 567 l 518 506 l 263 1199 l 378 1199 l 538 567 m 917 640 l 690 0 l 647 0 l 896 701 l 917 640 z "},"x":{"ha":1276,"x_min":50,"x_max":1226,"o":"m 1226 0 l 1183 0 l 736 671 l 1086 1197 l 1129 1197 l 778 671 l 1226 0 m 582 967 l 560 935 l 385 1197 l 501 1197 l 582 967 m 1071 0 l 943 0 l 560 575 l 176 0 l 50 0 l 497 671 l 146 1197 l 271 1197 l 560 764 l 847 1197 l 975 1197 l 622 671 l 1071 0 m 599 351 l 332 0 l 289 0 l 560 406 l 599 351 z "},"y":{"ha":1375,"x_min":50,"x_max":1325,"o":"m 1325 1197 l 665 -1 l 624 -1 l 1283 1197 l 1325 1197 m 719 785 l 706 756 l 315 1197 l 431 1197 l 719 785 m 1174 1197 l 518 0 l 397 0 l 668 493 l 50 1197 l 190 1197 l 722 592 l 1054 1197 l 1174 1197 z "},"z":{"ha":1181,"x_min":50,"x_max":1131,"o":"m 1131 1197 l 464 200 l 422 200 l 1088 1197 l 1131 1197 m 590 1000 l 572 972 l 124 972 l 124 1000 l 590 1000 m 1081 -1 l 1038 -1 l 1038 200 l 1081 200 l 1081 -1 m 974 1197 l 246 104 l 953 104 l 953 0 l 50 0 l 778 1093 l 118 1093 l 118 1197 l 974 1197 z "},"{":{"ha":100,"x_min":0,"x_max":0,"o":""},"|":{"ha":100,"x_min":0,"x_max":0,"o":""},"}":{"ha":100,"x_min":0,"x_max":0,"o":""},"~":{"ha":100,"x_min":0,"x_max":0,"o":""},"€":{"ha":1251,"x_min":50,"x_max":1201,"o":"m 1201 1178 l 1047 943 q 1018 961 1038 950 l 1160 1178 l 1201 1178 m 800 1011 q 476 828 592 1000 l 433 828 q 581 963 490 913 q 778 1013 672 1013 q 789 1013 781 1013 q 800 1011 796 1011 m 1188 525 l 1103 525 l 1103 365 l 476 365 q 800 182 593 190 l 778 182 q 574 235 671 182 q 425 382 472 290 l 1060 382 l 1060 542 l 1144 542 l 1144 828 l 1188 828 l 1188 525 m 1201 15 l 1160 15 l 1018 232 q 1047 250 1038 243 l 1201 15 m 1061 51 q 778 -18 931 -18 q 394 117 561 -18 q 178 458 226 251 l 50 458 l 50 564 l 164 564 q 163 596 163 575 q 164 628 163 617 l 50 628 l 50 733 l 178 733 q 394 1075 226 940 q 778 1210 561 1210 q 1061 1140 935 1210 l 1004 1053 q 778 1106 899 1106 q 468 1001 604 1106 q 286 733 332 897 l 1060 733 l 1060 628 l 268 628 l 268 564 l 975 564 l 975 458 l 286 458 q 469 191 332 296 q 778 86 606 86 q 1004 139 899 86 l 1061 51 z "},"‚":{"ha":343,"x_min":50,"x_max":293,"o":"m 293 126 l 115 -157 l 50 -157 l 156 126 l 293 126 z "},"ƒ":{"ha":100,"x_min":0,"x_max":0,"o":""},"„":{"ha":496,"x_min":50,"x_max":446,"o":"m 446 126 l 268 -157 l 203 -157 l 308 126 l 446 126 m 293 126 l 115 -157 l 50 -157 l 156 126 l 293 126 z "},"…":{"ha":703,"x_min":50,"x_max":653,"o":"m 653 0 l 611 0 l 611 153 l 653 153 l 653 0 m 517 0 l 411 0 l 411 153 l 517 153 l 517 0 m 336 0 l 231 0 l 231 153 l 336 153 l 336 0 m 156 0 l 50 0 l 50 153 l 156 153 l 156 0 z "},"†":{"ha":100,"x_min":0,"x_max":0,"o":""},"‡":{"ha":100,"x_min":0,"x_max":0,"o":""},"ˆ":{"ha":618,"x_min":50,"x_max":568,"o":"m 568 1239 l 510 1239 l 308 1404 l 108 1239 l 50 1239 l 271 1515 l 347 1515 l 568 1239 z "},"‰":{"ha":100,"x_min":0,"x_max":0,"o":""},"Š":{"ha":743,"x_min":50,"x_max":693,"o":"m 603 997 q 560 993 581 997 l 560 1197 l 603 1197 l 603 997 m 693 290 q 560 -1 693 114 l 518 -1 q 651 290 651 114 q 551 551 651 442 l 379 740 q 331 860 331 794 q 372 959 331 921 q 474 997 413 997 l 519 997 l 519 992 q 407 839 407 964 q 449 740 407 789 l 608 551 q 693 290 693 451 m 557 290 q 472 85 557 171 q 267 0 386 0 q 50 96 138 0 l 129 167 q 267 104 185 104 q 397 159 343 104 q 451 290 451 214 q 403 417 451 363 l 231 607 q 131 860 131 718 q 231 1100 131 1003 q 475 1197 332 1197 l 475 1093 q 305 1026 375 1093 q 235 860 235 960 q 307 676 235 756 l 481 488 q 557 290 557 404 m 651 1511 l 431 1235 l 354 1235 l 133 1511 l 192 1511 l 393 1346 l 593 1511 l 651 1511 z "},"‹":{"ha":375,"x_min":50,"x_max":325,"o":"m 325 247 l 286 247 l 50 596 l 286 946 l 325 946 l 188 596 l 325 247 z "},"Œ":{"ha":1875,"x_min":50,"x_max":1825,"o":"m 1785 972 l 1526 972 l 1375 554 l 1375 1000 l 1743 1000 l 1743 1197 l 1785 1197 l 1785 972 m 1785 258 l 1418 258 l 1418 200 l 1375 200 l 1375 286 l 1743 286 l 1743 554 l 1785 554 l 1785 258 m 1825 -1 l 1782 -1 l 1782 200 l 1825 200 l 1825 -1 m 1697 0 l 1175 0 l 1175 67 q 1086 -1 1133 29 l 1044 -1 q 1175 107 1114 43 l 1175 257 q 953 56 1089 128 q 664 -17 818 -17 q 231 164 411 -17 q 50 597 50 344 q 230 1033 50 851 q 664 1214 410 1214 q 953 1141 818 1214 q 1175 939 1089 1068 l 1175 1089 q 1044 1197 1118 1150 l 1086 1197 q 1175 1131 1132 1169 l 1175 1197 l 1656 1197 l 1656 1093 l 1282 1093 l 1282 458 l 1658 458 l 1658 354 l 1282 354 l 1282 104 l 1697 104 l 1697 0 m 1174 597 q 1024 958 1174 808 q 664 1107 875 1107 q 304 957 454 1107 q 154 597 154 807 q 304 238 154 388 q 664 89 454 89 q 1024 238 874 89 q 1174 597 1174 388 m 717 993 q 438 863 551 983 q 324 576 324 742 q 447 281 324 404 q 493 242 475 254 q 686 183 571 190 l 664 183 q 373 306 496 183 q 250 597 250 429 q 371 892 250 769 q 664 1014 492 1014 q 717 993 674 1014 z "},"‘":{"ha":343,"x_min":50,"x_max":293,"o":"m 293 1224 l 188 940 l 50 940 l 228 1224 l 293 1224 z "},"’":{"ha":343,"x_min":50,"x_max":293,"o":"m 293 1224 l 115 940 l 50 940 l 156 1224 l 293 1224 z "},"“":{"ha":496,"x_min":50,"x_max":446,"o":"m 446 1224 l 340 940 l 203 940 l 381 1224 l 446 1224 m 293 1224 l 188 940 l 50 940 l 228 1224 l 293 1224 z "},"”":{"ha":496,"x_min":50,"x_max":446,"o":"m 446 1224 l 268 940 l 203 940 l 308 1224 l 446 1224 m 293 1224 l 115 940 l 50 940 l 156 1224 l 293 1224 z "},"•":{"ha":614,"x_min":50,"x_max":564,"o":"m 564 581 q 489 400 564 475 q 307 325 414 325 q 125 400 200 325 q 50 581 50 475 q 126 763 50 688 q 307 838 201 838 q 489 763 414 838 q 564 581 564 688 z "},"–":{"ha":768,"x_min":50,"x_max":718,"o":"m 718 428 l 129 428 l 129 450 l 686 450 l 686 722 l 718 722 l 718 428 m 600 543 l 50 543 l 50 649 l 600 649 l 600 543 z "},"—":{"ha":1449,"x_min":50,"x_max":1399,"o":"m 1399 428 l 129 428 l 129 450 l 1367 450 l 1367 722 l 1399 722 l 1399 428 m 1281 543 l 50 543 l 50 649 l 1281 649 l 1281 543 z "},"˜":{"ha":610,"x_min":47,"x_max":560,"o":"m 560 1397 q 517 1285 560 1331 q 408 1239 474 1239 q 360 1247 383 1239 l 182 1306 q 157 1310 169 1310 q 74 1235 90 1310 l 50 1235 l 50 1244 q 93 1351 47 1307 q 203 1396 139 1396 q 249 1389 226 1396 l 428 1331 q 454 1326 442 1326 q 531 1382 515 1326 q 535 1397 532 1388 l 560 1397 z "},"™":{"ha":100,"x_min":0,"x_max":0,"o":""},"š":{"ha":743,"x_min":50,"x_max":693,"o":"m 603 997 q 560 993 581 997 l 560 1197 l 603 1197 l 603 997 m 693 290 q 560 -1 693 114 l 518 -1 q 651 290 651 114 q 551 551 651 442 l 379 740 q 331 860 331 794 q 372 959 331 921 q 474 997 413 997 l 519 997 l 519 992 q 407 839 407 964 q 449 740 407 789 l 608 551 q 693 290 693 451 m 557 290 q 472 85 557 171 q 267 0 386 0 q 50 96 138 0 l 129 167 q 267 104 185 104 q 397 159 343 104 q 451 290 451 214 q 403 417 451 363 l 231 607 q 131 860 131 718 q 231 1100 131 1003 q 475 1197 332 1197 l 475 1093 q 305 1026 375 1093 q 235 860 235 960 q 307 676 235 756 l 481 488 q 557 290 557 404 m 651 1511 l 431 1235 l 354 1235 l 133 1511 l 192 1511 l 393 1346 l 593 1511 l 651 1511 z "},"›":{"ha":392,"x_min":50,"x_max":325,"o":"m 50 247 l 89 247 l 325 596 l 89 946 l 50 946 l 188 596 l 50 247 z "},"œ":{"ha":1875,"x_min":50,"x_max":1825,"o":"m 1785 972 l 1526 972 l 1375 554 l 1375 1000 l 1743 1000 l 1743 1197 l 1785 1197 l 1785 972 m 1785 258 l 1418 258 l 1418 200 l 1375 200 l 1375 286 l 1743 286 l 1743 554 l 1785 554 l 1785 258 m 1825 -1 l 1782 -1 l 1782 200 l 1825 200 l 1825 -1 m 1697 0 l 1175 0 l 1175 67 q 1086 -1 1133 29 l 1044 -1 q 1175 107 1114 43 l 1175 257 q 953 56 1089 128 q 664 -17 818 -17 q 231 164 411 -17 q 50 597 50 344 q 230 1033 50 851 q 664 1214 410 1214 q 953 1141 818 1214 q 1175 939 1089 1068 l 1175 1089 q 1044 1197 1118 1150 l 1086 1197 q 1175 1131 1132 1169 l 1175 1197 l 1656 1197 l 1656 1093 l 1282 1093 l 1282 458 l 1658 458 l 1658 354 l 1282 354 l 1282 104 l 1697 104 l 1697 0 m 1174 597 q 1024 958 1174 808 q 664 1107 875 1107 q 304 957 454 1107 q 154 597 154 807 q 304 238 154 388 q 664 89 454 89 q 1024 238 874 89 q 1174 597 1174 388 m 717 993 q 438 863 551 983 q 324 576 324 742 q 447 281 324 404 q 493 242 475 254 q 686 183 571 190 l 664 183 q 373 306 496 183 q 250 597 250 429 q 371 892 250 769 q 664 1014 492 1014 q 717 993 674 1014 z "},"Ÿ":{"ha":1375,"x_min":50,"x_max":1325,"o":"m 1325 1197 l 665 -1 l 624 -1 l 1283 1197 l 1325 1197 m 719 785 l 706 756 l 315 1197 l 431 1197 l 719 785 m 1174 1197 l 518 0 l 397 0 l 668 493 l 50 1197 l 190 1197 l 722 592 l 1054 1197 l 1174 1197 m 846 1314 q 822 1257 846 1281 q 767 1233 799 1233 q 710 1257 733 1233 q 686 1314 686 1281 q 710 1369 686 1346 q 767 1393 733 1393 q 822 1369 799 1393 q 846 1314 846 1346 m 625 1314 q 602 1257 625 1281 q 546 1233 579 1233 q 490 1257 513 1233 q 467 1314 467 1281 q 490 1369 467 1346 q 546 1393 514 1393 q 601 1369 578 1393 q 625 1314 625 1346 z "},"¡":{"ha":342,"x_min":50,"x_max":292,"o":"m 292 897 l 250 897 l 250 1050 l 292 1050 l 292 897 m 156 897 l 50 897 l 50 1050 l 156 1050 l 156 897 m 292 -146 l 250 -146 l 250 833 l 50 833 l 50 854 l 292 854 l 292 -146 m 156 -146 l 50 -146 l 50 792 l 156 792 l 156 -146 z "},"¢":{"ha":850,"x_min":50,"x_max":800,"o":"m 800 190 q 640 119 733 144 l 640 0 l 597 0 l 597 119 q 758 190 686 140 l 597 433 l 597 813 l 758 1056 q 597 1125 679 1107 l 597 1196 l 640 1196 l 640 1125 q 800 1056 721 1107 l 640 813 l 640 433 l 800 190 m 675 996 l 615 908 q 504 939 565 935 l 504 306 q 613 336 560 310 l 672 249 q 504 200 592 207 l 504 0 l 399 0 l 399 206 q 149 351 249 233 q 50 624 50 469 q 150 895 50 778 q 399 1039 250 1013 l 399 1196 l 504 1196 l 504 1046 q 675 996 597 1038 m 399 314 l 399 932 q 224 821 293 907 q 154 624 154 735 q 223 427 154 514 q 399 314 292 340 m 304 476 q 250 624 250 538 q 304 768 250 707 l 304 694 q 292 624 292 654 q 304 551 292 592 l 304 476 z "},"£":{"ha":804,"x_min":50,"x_max":754,"o":"m 563 996 l 519 996 l 519 1196 l 563 1196 l 563 996 m 469 994 q 422 970 442 992 q 401 918 401 949 l 401 489 l 360 489 l 360 918 q 379 972 360 949 q 428 994 399 994 l 469 994 m 626 0 l 160 0 l 160 290 l 50 290 l 50 394 l 160 394 l 160 918 q 240 1114 160 1032 q 435 1196 321 1196 l 435 1089 q 315 1039 365 1089 q 265 918 265 989 l 265 394 l 458 394 l 458 290 l 265 290 l 265 106 l 626 106 l 626 0 m 754 0 l 711 0 l 711 197 l 754 197 l 754 0 m 586 197 l 361 197 l 361 214 l 543 214 l 543 489 l 586 489 l 586 197 z "},"¤":{"ha":1251,"x_min":50,"x_max":1201,"o":"m 1201 1178 l 1047 943 q 1018 961 1038 950 l 1160 1178 l 1201 1178 m 800 1011 q 476 828 592 1000 l 433 828 q 581 963 490 913 q 778 1013 672 1013 q 789 1013 781 1013 q 800 1011 796 1011 m 1188 525 l 1103 525 l 1103 365 l 476 365 q 800 182 593 190 l 778 182 q 574 235 671 182 q 425 382 472 290 l 1060 382 l 1060 542 l 1144 542 l 1144 828 l 1188 828 l 1188 525 m 1201 15 l 1160 15 l 1018 232 q 1047 250 1038 243 l 1201 15 m 1061 51 q 778 -18 931 -18 q 394 117 561 -18 q 178 458 226 251 l 50 458 l 50 564 l 164 564 q 163 596 163 575 q 164 628 163 617 l 50 628 l 50 733 l 178 733 q 394 1075 226 940 q 778 1210 561 1210 q 1061 1140 935 1210 l 1004 1053 q 778 1106 899 1106 q 468 1001 604 1106 q 286 733 332 897 l 1060 733 l 1060 628 l 268 628 l 268 564 l 975 564 l 975 458 l 286 458 q 469 191 332 296 q 778 86 606 86 q 1004 139 899 86 l 1061 51 z "},"¥":{"ha":1533,"x_min":50,"x_max":1483,"o":"m 1325 1196 l 1115 814 l 1072 814 l 1282 1196 l 1325 1196 m 721 783 l 704 754 l 315 1196 l 432 1196 l 721 783 m 1483 365 l 868 365 l 667 -3 l 625 -3 l 835 382 l 1442 382 l 1442 828 l 1483 828 l 1483 365 m 1354 458 l 769 458 l 517 -1 l 397 -1 l 650 458 l 72 458 l 72 564 l 606 564 l 549 628 l 72 628 l 72 733 l 457 733 l 50 1196 l 190 1196 l 722 590 l 1054 1196 l 1175 1196 l 921 733 l 1354 733 l 1354 628 l 864 628 l 828 564 l 1354 564 l 1354 458 z "},"¦":{"ha":50,"x_min":0,"x_max":0,"o":""},"§":{"ha":50,"x_min":0,"x_max":0,"o":""},"¨":{"ha":479,"x_min":50,"x_max":429,"o":"m 429 1314 q 406 1257 429 1281 q 350 1233 382 1233 q 293 1257 317 1233 q 269 1314 269 1281 q 293 1369 269 1346 q 350 1393 317 1393 q 406 1369 382 1393 q 429 1314 429 1346 m 208 1314 q 185 1257 208 1281 q 129 1233 163 1233 q 73 1257 96 1233 q 50 1314 50 1281 q 74 1369 50 1346 q 129 1393 97 1393 q 185 1369 161 1393 q 208 1314 208 1346 z "},"©":{"ha":50,"x_min":0,"x_max":0,"o":""},"ª":{"ha":781,"x_min":50,"x_max":731,"o":"m 731 551 l 688 551 l 438 1214 l 481 1214 l 731 551 m 586 553 l 475 553 l 451 614 l 183 614 l 161 553 l 50 553 l 297 1210 l 339 1210 l 586 553 m 414 718 l 318 979 l 222 718 l 414 718 z "},"«":{"ha":556,"x_min":50,"x_max":506,"o":"m 506 247 l 467 247 l 231 596 l 467 946 l 506 946 l 368 596 l 506 247 m 325 247 l 286 247 l 50 596 l 286 946 l 325 946 l 188 596 l 325 247 z "},"¬":{"ha":50,"x_min":0,"x_max":0,"o":""},"­":{"ha":50,"x_min":0,"x_max":0,"o":""},"®":{"ha":50,"x_min":0,"x_max":0,"o":""},"¯":{"ha":50,"x_min":0,"x_max":0,"o":""},"°":{"ha":50,"x_min":0,"x_max":0,"o":""},"±":{"ha":50,"x_min":0,"x_max":0,"o":""},"²":{"ha":50,"x_min":0,"x_max":0,"o":""},"³":{"ha":50,"x_min":0,"x_max":0,"o":""},"´":{"ha":431,"x_min":50,"x_max":381,"o":"m 381 1515 l 126 1232 l 50 1232 l 222 1515 l 381 1515 z "},"µ":{"ha":50,"x_min":0,"x_max":0,"o":""},"¶":{"ha":50,"x_min":0,"x_max":0,"o":""},"·":{"ha":50,"x_min":0,"x_max":0,"o":""},"¸":{"ha":446,"x_min":50,"x_max":396,"o":"m 396 -231 q 325 -323 396 -285 q 154 -361 254 -361 q 106 -361 138 -361 q 58 -360 74 -360 l 50 -322 l 65 -322 q 199 -297 143 -322 q 256 -236 256 -271 q 206 -177 256 -201 q 85 -150 157 -153 l 189 26 l 274 26 l 199 -103 q 339 -147 282 -111 q 396 -231 396 -183 z "},"¹":{"ha":50,"x_min":0,"x_max":0,"o":""},"º":{"ha":903,"x_min":50,"x_max":853,"o":"m 853 871 q 697 551 853 678 l 656 551 q 811 872 811 682 q 739 1118 811 1014 q 649 1214 706 1165 l 692 1214 q 853 871 853 1078 m 717 879 q 619 643 717 742 q 383 544 521 544 q 148 643 246 544 q 50 879 50 742 q 148 1115 50 1017 q 383 1213 246 1213 q 619 1115 521 1213 q 717 879 717 1017 m 613 879 q 545 1040 613 974 q 383 1107 478 1107 q 222 1040 289 1107 q 154 879 154 974 q 221 717 154 783 q 383 650 288 650 q 546 717 479 650 q 613 879 613 783 m 406 746 q 385 744 396 744 q 288 782 328 744 q 249 878 249 819 q 288 974 249 935 q 385 1014 326 1014 q 394 1014 388 1014 q 404 1013 401 1013 q 322 965 354 1003 q 290 878 290 928 q 323 791 290 828 q 406 746 356 754 z "},"»":{"ha":556,"x_min":50,"x_max":506,"o":"m 50 247 l 89 247 l 325 596 l 89 946 l 50 946 l 188 596 l 50 247 m 231 247 l 269 247 l 506 596 l 269 946 l 231 946 l 368 596 l 231 247 z "},"¼":{"ha":50,"x_min":0,"x_max":0,"o":""},"½":{"ha":50,"x_min":0,"x_max":0,"o":""},"¾":{"ha":50,"x_min":0,"x_max":0,"o":""},"¿":{"ha":781,"x_min":50,"x_max":731,"o":"m 611 847 l 568 847 l 568 1044 l 611 1044 l 611 847 m 476 888 l 369 888 l 369 1044 l 476 1044 l 476 888 m 611 694 q 488 390 608 524 l 313 197 q 289 140 289 172 q 361 49 289 67 q 339 46 350 46 q 274 74 301 46 q 247 140 247 103 q 271 197 247 171 l 446 390 q 568 694 565 522 l 568 782 l 611 782 l 611 694 m 554 -57 q 340 -153 469 -153 q 135 -68 219 -153 q 50 138 50 17 q 125 333 50 250 l 297 524 q 369 707 369 603 l 369 783 l 476 783 l 476 707 q 375 453 476 565 l 204 264 q 154 138 154 208 q 209 6 154 61 q 340 -49 264 -49 q 478 13 419 -49 l 554 -57 m 731 -53 q 633 -153 700 -87 l 590 -153 q 688 -53 597 -147 l 610 19 l 651 19 l 731 -53 z "},"À":{"ha":1167,"x_min":50,"x_max":1117,"o":"m 1117 -1 l 1075 -1 l 625 1196 l 668 1196 l 1117 -1 m 974 0 l 863 0 l 818 122 l 207 122 l 163 0 l 50 0 l 513 1257 l 974 0 m 315 26 l 304 -1 l 263 -1 l 274 26 l 315 26 m 778 226 l 513 950 l 246 226 l 778 226 m 563 542 l 422 322 l 381 322 l 513 678 l 563 542 m 575 1288 l 499 1288 l 244 1571 l 403 1571 l 575 1288 z "},"Á":{"ha":1167,"x_min":50,"x_max":1117,"o":"m 1117 -1 l 1075 -1 l 625 1196 l 668 1196 l 1117 -1 m 974 0 l 863 0 l 818 122 l 207 122 l 163 0 l 50 0 l 513 1257 l 974 0 m 315 26 l 304 -1 l 263 -1 l 274 26 l 315 26 m 778 226 l 513 950 l 246 226 l 778 226 m 563 542 l 422 322 l 381 322 l 513 678 l 563 542 m 797 1571 l 543 1288 l 467 1288 l 639 1571 l 797 1571 z "},"Â":{"ha":1167,"x_min":50,"x_max":1117,"o":"m 1117 -1 l 1075 -1 l 625 1196 l 668 1196 l 1117 -1 m 974 0 l 863 0 l 818 122 l 207 122 l 163 0 l 50 0 l 513 1257 l 974 0 m 315 26 l 304 -1 l 263 -1 l 274 26 l 315 26 m 778 226 l 513 950 l 246 226 l 778 226 m 563 542 l 422 322 l 381 322 l 513 678 l 563 542 m 776 1239 l 718 1239 l 517 1404 l 317 1239 l 258 1239 l 479 1515 l 556 1515 l 776 1239 z "},"Ã":{"ha":1167,"x_min":50,"x_max":1117,"o":"m 1117 -1 l 1075 -1 l 625 1196 l 668 1196 l 1117 -1 m 974 0 l 863 0 l 818 122 l 207 122 l 163 0 l 50 0 l 513 1257 l 974 0 m 315 26 l 304 -1 l 263 -1 l 274 26 l 315 26 m 778 226 l 513 950 l 246 226 l 778 226 m 563 542 l 422 322 l 381 322 l 513 678 l 563 542 m 796 1411 q 753 1299 796 1344 q 644 1253 710 1253 q 596 1261 619 1253 l 418 1319 q 393 1324 406 1324 q 310 1249 326 1324 l 286 1249 l 286 1258 q 329 1365 283 1321 q 439 1410 375 1410 q 485 1403 463 1410 l 664 1344 q 690 1340 678 1340 q 767 1396 751 1340 q 771 1411 768 1401 l 796 1411 z "},"Ä":{"ha":1167,"x_min":50,"x_max":1117,"o":"m 1117 -1 l 1075 -1 l 625 1196 l 668 1196 l 1117 -1 m 974 0 l 863 0 l 818 122 l 207 122 l 163 0 l 50 0 l 513 1257 l 974 0 m 315 26 l 304 -1 l 263 -1 l 274 26 l 315 26 m 778 226 l 513 950 l 246 226 l 778 226 m 563 542 l 422 322 l 381 322 l 513 678 l 563 542 m 704 1314 q 681 1257 704 1281 q 625 1233 657 1233 q 568 1257 592 1233 q 544 1314 544 1281 q 568 1369 544 1346 q 625 1393 592 1393 q 681 1369 657 1393 q 704 1314 704 1346 m 483 1314 q 460 1257 483 1281 q 404 1233 438 1233 q 348 1257 371 1233 q 325 1314 325 1281 q 349 1369 325 1346 q 404 1393 372 1393 q 460 1369 436 1393 q 483 1314 483 1346 z "},"Å":{"ha":1167,"x_min":50,"x_max":1117,"o":"m 1117 -1 l 1075 -1 l 625 1196 l 668 1196 l 1117 -1 m 974 0 l 863 0 l 818 122 l 207 122 l 163 0 l 50 0 l 513 1257 l 974 0 m 315 26 l 304 -1 l 263 -1 l 274 26 l 315 26 m 778 226 l 513 950 l 246 226 l 778 226 m 563 542 l 422 322 l 381 322 l 513 678 l 563 542 m 676 1393 q 627 1274 676 1324 q 508 1225 578 1225 q 389 1274 439 1225 q 339 1393 339 1324 q 389 1513 339 1463 q 508 1563 439 1563 q 627 1513 578 1563 q 676 1393 676 1463 m 614 1393 q 583 1469 614 1438 q 508 1500 551 1500 q 433 1469 465 1500 q 401 1393 401 1438 q 433 1319 401 1350 q 508 1288 465 1288 q 583 1319 551 1288 q 614 1393 614 1350 z "},"Æ":{"ha":1531,"x_min":50,"x_max":1481,"o":"m 1439 975 l 1161 975 l 1031 551 l 1031 996 l 1396 996 l 1396 1196 l 1439 1196 l 1439 975 m 1442 236 l 1074 236 l 1074 197 l 1031 197 l 1031 257 l 1399 257 l 1399 551 l 1442 551 l 1442 236 m 1481 0 l 1439 0 l 1439 197 l 1481 197 l 1481 0 m 1354 0 l 832 0 l 832 351 l 415 351 l 176 0 l 50 0 l 857 1196 l 1311 1196 l 1311 1089 l 938 1089 l 938 457 l 1314 457 l 1314 351 l 938 351 l 938 106 l 1354 106 l 1354 0 m 508 257 l 332 0 l 290 0 l 465 257 l 508 257 m 832 457 l 832 969 l 485 457 l 832 457 m 738 597 l 706 551 l 664 551 l 738 661 l 738 597 z "},"Ç":{"ha":1182,"x_min":50,"x_max":1132,"o":"m 1104 1072 l 1019 946 q 989 964 1003 957 l 1075 1093 l 1104 1072 m 1132 83 l 1101 64 l 989 233 q 1019 251 1011 244 l 1132 83 m 1003 85 q 665 -17 851 -17 q 231 164 411 -17 q 50 597 50 344 q 231 1033 50 851 q 665 1214 411 1214 q 1003 1113 847 1214 l 946 1024 q 665 1107 821 1107 q 305 958 454 1107 q 156 597 156 808 q 306 238 156 388 q 665 89 456 89 q 946 172 818 89 l 1003 85 m 718 993 q 438 863 553 983 q 324 576 324 743 q 494 242 324 368 q 688 183 583 189 l 665 183 q 453 242 553 183 q 305 391 360 296 q 250 597 250 486 q 372 892 250 769 q 665 1014 494 1014 q 718 993 674 1014 m 715 -231 q 644 -323 715 -285 q 474 -361 574 -361 q 425 -361 457 -361 q 378 -360 393 -360 l 369 -322 l 385 -322 q 519 -297 463 -322 q 575 -236 575 -271 q 526 -177 575 -201 q 404 -150 476 -153 l 508 26 l 593 26 l 518 -103 q 658 -147 601 -111 q 715 -231 715 -183 z "},"È":{"ha":750,"x_min":50,"x_max":700,"o":"m 660 972 l 401 972 l 250 554 l 250 1000 l 618 1000 l 618 1197 l 660 1197 l 660 972 m 572 0 l 50 0 l 50 1197 l 531 1197 l 531 1093 l 157 1093 l 157 458 l 533 458 l 533 354 l 157 354 l 157 104 l 572 104 l 572 0 m 660 258 l 293 258 l 293 200 l 250 200 l 250 286 l 618 286 l 618 554 l 660 554 l 660 258 m 700 -1 l 657 -1 l 657 200 l 700 200 l 700 -1 m 450 1232 l 374 1232 l 119 1515 l 278 1515 l 450 1232 z "},"É":{"ha":750,"x_min":50,"x_max":700,"o":"m 660 972 l 401 972 l 250 554 l 250 1000 l 618 1000 l 618 1197 l 660 1197 l 660 972 m 572 0 l 50 0 l 50 1197 l 531 1197 l 531 1093 l 157 1093 l 157 458 l 533 458 l 533 354 l 157 354 l 157 104 l 572 104 l 572 0 m 660 258 l 293 258 l 293 200 l 250 200 l 250 286 l 618 286 l 618 554 l 660 554 l 660 258 m 700 -1 l 657 -1 l 657 200 l 700 200 l 700 -1 m 617 1515 l 363 1232 l 286 1232 l 458 1515 l 617 1515 z "}," ":{"ha":750,"x_min":50,"x_max":700,"o":"m 660 972 l 401 972 l 250 554 l 250 1000 l 618 1000 l 618 1197 l 660 1197 l 660 972 m 572 0 l 50 0 l 50 1197 l 531 1197 l 531 1093 l 157 1093 l 157 458 l 533 458 l 533 354 l 157 354 l 157 104 l 572 104 l 572 0 m 660 258 l 293 258 l 293 200 l 250 200 l 250 286 l 618 286 l 618 554 l 660 554 l 660 258 m 700 -1 l 657 -1 l 657 200 l 700 200 l 700 -1 m 568 1239 l 510 1239 l 308 1404 l 108 1239 l 50 1239 l 271 1515 l 347 1515 l 568 1239 z "},"Ë":{"ha":750,"x_min":50,"x_max":700,"o":"m 660 972 l 401 972 l 250 554 l 250 1000 l 618 1000 l 618 1197 l 660 1197 l 660 972 m 572 0 l 50 0 l 50 1197 l 531 1197 l 531 1093 l 157 1093 l 157 458 l 533 458 l 533 354 l 157 354 l 157 104 l 572 104 l 572 0 m 660 258 l 293 258 l 293 200 l 250 200 l 250 286 l 618 286 l 618 554 l 660 554 l 660 258 m 700 -1 l 657 -1 l 657 200 l 700 200 l 700 -1 m 485 1314 q 461 1257 485 1281 q 406 1233 438 1233 q 349 1257 372 1233 q 325 1314 325 1281 q 349 1369 325 1346 q 406 1393 372 1393 q 461 1369 438 1393 q 485 1314 485 1346 m 264 1314 q 241 1257 264 1281 q 185 1233 218 1233 q 128 1257 151 1233 q 106 1314 106 1281 q 129 1369 106 1346 q 185 1393 153 1393 q 240 1369 217 1393 q 264 1314 264 1346 z "},"Ì":{"ha":385,"x_min":-186,"x_max":335,"o":"m 335 1199 l 293 0 l 250 0 l 250 1199 l 335 1199 m 154 0 l 50 0 l 50 1199 l 154 1199 l 154 0 m 144 1232 l 68 1232 l -186 1515 l -28 1515 l 144 1232 z "},"Í":{"ha":385,"x_min":50,"x_max":394,"o":"m 335 1199 l 293 0 l 250 0 l 250 1199 l 335 1199 m 154 0 l 50 0 l 50 1199 l 154 1199 l 154 0 m 394 1515 l 140 1232 l 64 1232 l 236 1515 l 394 1515 z "},"Î":{"ha":385,"x_min":-153,"x_max":365,"o":"m 335 1199 l 293 0 l 250 0 l 250 1199 l 335 1199 m 154 0 l 50 0 l 50 1199 l 154 1199 l 154 0 m 365 1239 l 307 1239 l 106 1404 l -94 1239 l -153 1239 l 68 1515 l 144 1515 l 365 1239 z "},"Ï":{"ha":385,"x_min":-89,"x_max":335,"o":"m 335 1199 l 293 0 l 250 0 l 250 1199 l 335 1199 m 154 0 l 50 0 l 50 1199 l 154 1199 l 154 0 m 290 1314 q 267 1257 290 1281 q 211 1233 243 1233 q 154 1257 178 1233 q 131 1314 131 1281 q 154 1369 131 1346 q 211 1393 178 1393 q 267 1369 243 1393 q 290 1314 290 1346 m 69 1314 q 47 1257 69 1281 q -10 1233 24 1233 q -66 1257 -43 1233 q -89 1314 -89 1281 q -65 1369 -89 1346 q -10 1393 -42 1393 q 46 1369 22 1393 q 69 1314 69 1346 z "},"Ð":{"ha":944,"x_min":50,"x_max":894,"o":"m 894 597 q 804 253 894 417 q 560 -3 714 90 l 518 -3 q 762 253 671 90 q 853 597 853 417 q 763 939 853 776 q 522 1196 674 1101 l 565 1196 q 806 939 717 1101 q 894 597 894 776 m 757 597 q 608 196 757 372 q 233 0 456 17 l 176 -4 l 176 351 l 50 351 l 50 457 l 176 457 l 176 1200 l 233 1196 q 608 999 456 1179 q 757 597 757 824 m 653 597 q 549 906 653 765 q 282 1082 444 1046 l 282 457 l 435 457 l 435 351 l 282 351 l 282 115 q 549 290 444 151 q 653 597 653 429 m 444 888 l 418 551 l 376 551 l 376 939 q 444 888 410 919 m 540 351 q 483 286 518 321 l 322 286 l 322 306 l 499 306 l 499 551 l 540 551 l 540 351 z "},"Ñ":{"ha":1169,"x_min":50,"x_max":1119,"o":"m 1119 -1 l 1078 -1 l 1078 1168 l 1119 1168 l 1119 -1 m 792 476 l 222 1168 l 263 1168 l 792 526 l 792 476 m 986 -72 l 153 953 l 153 0 l 50 0 l 50 1240 l 883 215 l 883 1168 l 986 1168 l 986 -72 m 342 575 l 286 0 l 246 0 l 246 693 l 342 575 m 782 1397 q 739 1285 782 1331 q 631 1239 696 1239 q 582 1247 606 1239 l 404 1306 q 379 1310 392 1310 q 296 1235 313 1310 l 272 1235 l 272 1244 q 315 1351 269 1307 q 425 1396 361 1396 q 471 1389 449 1396 l 650 1331 q 676 1326 664 1326 q 753 1382 738 1326 q 757 1397 754 1388 l 782 1397 z "},"Ò":{"ha":1465,"x_min":50,"x_max":1415,"o":"m 1415 597 q 1325 250 1415 411 q 1083 -1 1236 94 l 1042 -1 q 1282 250 1193 94 q 1372 597 1372 411 q 1282 944 1372 783 q 1043 1197 1194 1100 l 1085 1197 q 1325 944 1236 1100 q 1415 597 1415 783 m 1279 597 q 1098 164 1279 344 q 663 -17 917 -17 q 229 163 408 -17 q 50 597 50 343 q 229 1033 50 851 q 663 1214 408 1214 q 1098 1033 917 1214 q 1279 597 1279 851 m 1172 597 q 1023 958 1172 808 q 663 1107 874 1107 q 303 958 453 1107 q 154 597 154 808 q 303 238 154 388 q 663 89 453 89 q 1023 238 874 89 q 1172 597 1172 388 m 715 993 q 437 863 551 983 q 322 576 322 742 q 492 242 322 368 q 685 183 583 189 l 663 183 q 372 305 493 183 q 250 597 250 426 q 371 892 250 769 q 663 1014 492 1014 q 715 993 671 1014 m 756 1246 l 679 1246 l 425 1529 l 583 1529 l 756 1246 z "},"Ó":{"ha":1465,"x_min":50,"x_max":1415,"o":"m 1415 597 q 1325 250 1415 411 q 1083 -1 1236 94 l 1042 -1 q 1282 250 1193 94 q 1372 597 1372 411 q 1282 944 1372 783 q 1043 1197 1194 1100 l 1085 1197 q 1325 944 1236 1100 q 1415 597 1415 783 m 1279 597 q 1098 164 1279 344 q 663 -17 917 -17 q 229 163 408 -17 q 50 597 50 343 q 229 1033 50 851 q 663 1214 408 1214 q 1098 1033 917 1214 q 1279 597 1279 851 m 1172 597 q 1023 958 1172 808 q 663 1107 874 1107 q 303 958 453 1107 q 154 597 154 808 q 303 238 154 388 q 663 89 453 89 q 1023 238 874 89 q 1172 597 1172 388 m 715 993 q 437 863 551 983 q 322 576 322 742 q 492 242 322 368 q 685 183 583 189 l 663 183 q 372 305 493 183 q 250 597 250 426 q 371 892 250 769 q 663 1014 492 1014 q 715 993 671 1014 m 964 1529 l 710 1246 l 633 1246 l 806 1529 l 964 1529 z "},"Ô":{"ha":1465,"x_min":50,"x_max":1415,"o":"m 1415 597 q 1325 250 1415 411 q 1083 -1 1236 94 l 1042 -1 q 1282 250 1193 94 q 1372 597 1372 411 q 1282 944 1372 783 q 1043 1197 1194 1100 l 1085 1197 q 1325 944 1236 1100 q 1415 597 1415 783 m 1279 597 q 1098 164 1279 344 q 663 -17 917 -17 q 229 163 408 -17 q 50 597 50 343 q 229 1033 50 851 q 663 1214 408 1214 q 1098 1033 917 1214 q 1279 597 1279 851 m 1172 597 q 1023 958 1172 808 q 663 1107 874 1107 q 303 958 453 1107 q 154 597 154 808 q 303 238 154 388 q 663 89 453 89 q 1023 238 874 89 q 1172 597 1172 388 m 715 993 q 437 863 551 983 q 322 576 322 742 q 492 242 322 368 q 685 183 583 189 l 663 183 q 372 305 493 183 q 250 597 250 426 q 371 892 250 769 q 663 1014 492 1014 q 715 993 671 1014 m 915 1239 l 857 1239 l 656 1404 l 456 1239 l 397 1239 l 618 1515 l 694 1515 l 915 1239 z "},"Õ":{"ha":1465,"x_min":50,"x_max":1415,"o":"m 1415 597 q 1325 250 1415 411 q 1083 -1 1236 94 l 1042 -1 q 1282 250 1193 94 q 1372 597 1372 411 q 1282 944 1372 783 q 1043 1197 1194 1100 l 1085 1197 q 1325 944 1236 1100 q 1415 597 1415 783 m 1279 597 q 1098 164 1279 344 q 663 -17 917 -17 q 229 163 408 -17 q 50 597 50 343 q 229 1033 50 851 q 663 1214 408 1214 q 1098 1033 917 1214 q 1279 597 1279 851 m 1172 597 q 1023 958 1172 808 q 663 1107 874 1107 q 303 958 453 1107 q 154 597 154 808 q 303 238 154 388 q 663 89 453 89 q 1023 238 874 89 q 1172 597 1172 388 m 715 993 q 437 863 551 983 q 322 576 322 742 q 492 242 322 368 q 685 183 583 189 l 663 183 q 372 305 493 183 q 250 597 250 426 q 371 892 250 769 q 663 1014 492 1014 q 715 993 671 1014 m 921 1411 q 878 1299 921 1344 q 769 1253 835 1253 q 721 1261 744 1253 l 543 1319 q 518 1324 531 1324 q 435 1249 451 1324 l 411 1249 l 411 1258 q 454 1365 408 1321 q 564 1410 500 1410 q 610 1403 588 1410 l 789 1344 q 815 1340 803 1340 q 892 1396 876 1340 q 896 1411 893 1401 l 921 1411 z "},"Ö":{"ha":1465,"x_min":50,"x_max":1415,"o":"m 1415 597 q 1325 250 1415 411 q 1083 -1 1236 94 l 1042 -1 q 1282 250 1193 94 q 1372 597 1372 411 q 1282 944 1372 783 q 1043 1197 1194 1100 l 1085 1197 q 1325 944 1236 1100 q 1415 597 1415 783 m 1279 597 q 1098 164 1279 344 q 663 -17 917 -17 q 229 163 408 -17 q 50 597 50 343 q 229 1033 50 851 q 663 1214 408 1214 q 1098 1033 917 1214 q 1279 597 1279 851 m 1172 597 q 1023 958 1172 808 q 663 1107 874 1107 q 303 958 453 1107 q 154 597 154 808 q 303 238 154 388 q 663 89 453 89 q 1023 238 874 89 q 1172 597 1172 388 m 715 993 q 437 863 551 983 q 322 576 322 742 q 492 242 322 368 q 685 183 583 189 l 663 183 q 372 305 493 183 q 250 597 250 426 q 371 892 250 769 q 663 1014 492 1014 q 715 993 671 1014 m 851 1314 q 828 1257 851 1281 q 772 1233 804 1233 q 715 1257 739 1233 q 692 1314 692 1281 q 715 1369 692 1346 q 772 1393 739 1393 q 828 1369 804 1393 q 851 1314 851 1346 m 631 1314 q 608 1257 631 1281 q 551 1233 585 1233 q 495 1257 518 1233 q 472 1314 472 1281 q 496 1369 472 1346 q 551 1393 519 1393 q 607 1369 583 1393 q 631 1314 631 1346 z "},"×":{"ha":50,"x_min":0,"x_max":0,"o":""},"Ø":{"ha":1447,"x_min":50,"x_max":1397,"o":"m 1397 1088 l 1264 953 q 1375 579 1375 785 q 1286 243 1375 400 q 1056 -1 1201 93 l 1014 -1 q 1246 243 1161 92 q 1335 579 1335 400 q 1222 953 1335 783 l 1356 1088 l 1204 1242 l 1244 1242 l 1397 1088 m 1242 579 q 1067 158 1242 332 q 646 -17 893 -17 q 263 122 431 -17 l 153 15 l 82 88 l 190 196 q 50 579 50 361 q 225 999 50 825 q 646 1174 400 1174 q 1029 1035 864 1174 l 1138 1143 l 1210 1069 l 1101 963 q 1242 579 1242 796 m 957 961 q 646 1074 824 1074 q 297 928 442 1074 q 151 579 151 783 q 263 268 151 404 l 957 961 m 1140 579 q 1029 890 1140 753 l 333 196 q 646 85 468 85 q 995 229 850 85 q 1140 579 1140 374 m 1025 715 l 522 213 q 667 176 588 181 l 646 176 q 481 213 557 176 l 1013 744 q 1025 715 1018 735 m 667 981 q 395 857 507 974 q 283 579 283 740 q 307 442 283 515 l 279 413 q 243 579 243 492 q 362 863 243 744 q 646 982 481 982 q 657 982 650 982 q 667 981 664 981 z "},"Ù":{"ha":1197,"x_min":50,"x_max":1147,"o":"m 1147 479 q 1075 203 1147 333 q 885 -1 1004 78 l 842 -1 q 1034 204 963 76 q 1106 479 1106 332 l 1106 1197 l 1147 1197 l 1147 479 m 1010 479 q 869 141 1010 282 q 531 0 728 0 q 191 141 332 0 q 50 479 50 282 l 50 1197 l 156 1197 l 156 479 q 265 215 156 325 q 531 104 375 104 q 794 215 683 104 q 906 479 906 325 l 906 1197 l 1010 1197 l 1010 479 m 551 200 l 531 200 q 332 282 415 200 q 249 479 249 364 l 249 1197 l 365 1197 l 292 479 q 367 290 292 371 q 551 200 443 210 m 686 1232 l 610 1232 l 356 1515 l 514 1515 l 686 1232 z "},"Ú":{"ha":1197,"x_min":50,"x_max":1147,"o":"m 1147 479 q 1075 203 1147 333 q 885 -1 1004 78 l 842 -1 q 1034 204 963 76 q 1106 479 1106 332 l 1106 1197 l 1147 1197 l 1147 479 m 1010 479 q 869 141 1010 282 q 531 0 728 0 q 191 141 332 0 q 50 479 50 282 l 50 1197 l 156 1197 l 156 479 q 265 215 156 325 q 531 104 375 104 q 794 215 683 104 q 906 479 906 325 l 906 1197 l 1010 1197 l 1010 479 m 551 200 l 531 200 q 332 282 415 200 q 249 479 249 364 l 249 1197 l 365 1197 l 292 479 q 367 290 292 371 q 551 200 443 210 m 797 1515 l 543 1232 l 467 1232 l 639 1515 l 797 1515 z "},"Û":{"ha":1197,"x_min":50,"x_max":1147,"o":"m 1147 479 q 1075 203 1147 333 q 885 -1 1004 78 l 842 -1 q 1034 204 963 76 q 1106 479 1106 332 l 1106 1197 l 1147 1197 l 1147 479 m 1010 479 q 869 141 1010 282 q 531 0 728 0 q 191 141 332 0 q 50 479 50 282 l 50 1197 l 156 1197 l 156 479 q 265 215 156 325 q 531 104 375 104 q 794 215 683 104 q 906 479 906 325 l 906 1197 l 1010 1197 l 1010 479 m 551 200 l 531 200 q 332 282 415 200 q 249 479 249 364 l 249 1197 l 365 1197 l 292 479 q 367 290 292 371 q 551 200 443 210 m 818 1239 l 760 1239 l 558 1404 l 358 1239 l 300 1239 l 521 1515 l 597 1515 l 818 1239 z "},"Ü":{"ha":1197,"x_min":50,"x_max":1147,"o":"m 1147 479 q 1075 203 1147 333 q 885 -1 1004 78 l 842 -1 q 1034 204 963 76 q 1106 479 1106 332 l 1106 1197 l 1147 1197 l 1147 479 m 1010 479 q 869 141 1010 282 q 531 0 728 0 q 191 141 332 0 q 50 479 50 282 l 50 1197 l 156 1197 l 156 479 q 265 215 156 325 q 531 104 375 104 q 794 215 683 104 q 906 479 906 325 l 906 1197 l 1010 1197 l 1010 479 m 551 200 l 531 200 q 332 282 415 200 q 249 479 249 364 l 249 1197 l 365 1197 l 292 479 q 367 290 292 371 q 551 200 443 210 m 735 1314 q 711 1257 735 1281 q 656 1233 688 1233 q 599 1257 622 1233 q 575 1314 575 1281 q 599 1369 575 1346 q 656 1393 622 1393 q 711 1369 688 1393 q 735 1314 735 1346 m 514 1314 q 491 1257 514 1281 q 435 1233 468 1233 q 378 1257 401 1233 q 356 1314 356 1281 q 379 1369 356 1346 q 435 1393 403 1393 q 490 1369 467 1393 q 514 1314 514 1346 z "},"Ý":{"ha":1375,"x_min":50,"x_max":1325,"o":"m 1325 1197 l 665 -1 l 624 -1 l 1283 1197 l 1325 1197 m 719 785 l 706 756 l 315 1197 l 431 1197 l 719 785 m 1174 1197 l 518 0 l 397 0 l 668 493 l 50 1197 l 190 1197 l 722 592 l 1054 1197 l 1174 1197 m 936 1515 l 682 1232 l 606 1232 l 778 1515 l 936 1515 z "},"Þ":{"ha":756,"x_min":50,"x_max":706,"o":"m 706 596 q 588 267 706 411 q 290 85 471 122 l 290 0 l 247 0 l 247 85 q 546 267 428 122 q 664 596 664 411 q 547 925 664 781 q 247 1108 429 1069 l 247 1196 l 290 1196 l 290 1108 q 588 925 471 1069 q 706 596 706 781 m 568 596 q 447 299 568 424 q 154 168 326 174 l 154 0 l 50 0 l 50 1196 l 154 1196 l 154 1024 q 447 894 326 1019 q 568 596 568 769 m 464 596 q 374 819 464 725 q 154 919 283 914 l 154 272 q 374 373 283 279 q 464 596 464 467 m 290 424 q 247 394 271 406 l 247 797 q 290 768 267 789 l 290 424 z "},"ß":{"ha":1069,"x_min":50,"x_max":1019,"o":"m 929 996 l 886 996 l 886 1196 l 929 1196 l 929 996 m 1019 289 q 886 -3 1019 113 l 844 -3 q 978 289 978 113 q 878 547 978 436 l 706 739 q 657 858 657 793 q 696 955 657 915 q 792 994 735 994 l 832 994 q 737 953 775 990 q 699 858 699 915 q 747 739 699 793 l 919 547 q 1019 289 1019 436 m 375 740 q 328 858 328 793 q 375 961 328 928 q 363 858 363 911 q 375 740 363 794 m 883 289 q 798 83 883 169 q 593 -3 713 -3 q 428 49 503 -3 q 265 -3 351 -3 q 50 94 136 -3 l 126 164 q 265 103 183 103 q 395 158 342 103 q 449 289 449 213 q 401 413 449 360 l 228 604 q 129 858 129 713 q 230 1099 129 1001 q 474 1196 331 1196 l 474 1089 q 303 1024 374 1089 q 233 858 233 958 q 307 675 233 757 l 478 485 q 556 289 556 399 q 504 125 556 196 q 593 103 546 103 q 724 158 669 103 q 778 289 778 213 q 729 413 778 358 l 557 604 q 457 858 457 715 q 558 1099 457 1001 q 801 1196 658 1196 l 801 1089 q 631 1023 701 1089 q 561 858 561 957 q 635 675 561 757 l 807 485 q 883 289 883 400 m 683 289 q 642 213 683 240 q 649 289 649 242 q 640 371 649 329 q 671 335 668 339 q 683 289 683 315 z "},"à":{"ha":1167,"x_min":50,"x_max":1117,"o":"m 1117 -1 l 1075 -1 l 625 1196 l 668 1196 l 1117 -1 m 974 0 l 863 0 l 818 122 l 207 122 l 163 0 l 50 0 l 513 1257 l 974 0 m 315 26 l 304 -1 l 263 -1 l 274 26 l 315 26 m 778 226 l 513 950 l 246 226 l 778 226 m 563 542 l 422 322 l 381 322 l 513 678 l 563 542 m 575 1288 l 499 1288 l 244 1571 l 403 1571 l 575 1288 z "},"á":{"ha":1167,"x_min":50,"x_max":1117,"o":"m 1117 -1 l 1075 -1 l 625 1196 l 668 1196 l 1117 -1 m 974 0 l 863 0 l 818 122 l 207 122 l 163 0 l 50 0 l 513 1257 l 974 0 m 315 26 l 304 -1 l 263 -1 l 274 26 l 315 26 m 778 226 l 513 950 l 246 226 l 778 226 m 563 542 l 422 322 l 381 322 l 513 678 l 563 542 m 797 1571 l 543 1288 l 467 1288 l 639 1571 l 797 1571 z "},"â":{"ha":1167,"x_min":50,"x_max":1117,"o":"m 1117 -1 l 1075 -1 l 625 1196 l 668 1196 l 1117 -1 m 974 0 l 863 0 l 818 122 l 207 122 l 163 0 l 50 0 l 513 1257 l 974 0 m 315 26 l 304 -1 l 263 -1 l 274 26 l 315 26 m 778 226 l 513 950 l 246 226 l 778 226 m 563 542 l 422 322 l 381 322 l 513 678 l 563 542 m 776 1239 l 718 1239 l 517 1404 l 317 1239 l 258 1239 l 479 1515 l 556 1515 l 776 1239 z "},"ã":{"ha":1167,"x_min":50,"x_max":1117,"o":"m 1117 -1 l 1075 -1 l 625 1196 l 668 1196 l 1117 -1 m 974 0 l 863 0 l 818 122 l 207 122 l 163 0 l 50 0 l 513 1257 l 974 0 m 315 26 l 304 -1 l 263 -1 l 274 26 l 315 26 m 778 226 l 513 950 l 246 226 l 778 226 m 563 542 l 422 322 l 381 322 l 513 678 l 563 542 m 796 1411 q 753 1299 796 1344 q 644 1253 710 1253 q 596 1261 619 1253 l 418 1319 q 393 1324 406 1324 q 310 1249 326 1324 l 286 1249 l 286 1258 q 329 1365 283 1321 q 439 1410 375 1410 q 485 1403 463 1410 l 664 1344 q 690 1340 678 1340 q 767 1396 751 1340 q 771 1411 768 1401 l 796 1411 z "},"ä":{"ha":1167,"x_min":50,"x_max":1117,"o":"m 1117 -1 l 1075 -1 l 625 1196 l 668 1196 l 1117 -1 m 974 0 l 863 0 l 818 122 l 207 122 l 163 0 l 50 0 l 513 1257 l 974 0 m 315 26 l 304 -1 l 263 -1 l 274 26 l 315 26 m 778 226 l 513 950 l 246 226 l 778 226 m 563 542 l 422 322 l 381 322 l 513 678 l 563 542 m 701 1314 q 678 1257 701 1281 q 622 1233 654 1233 q 565 1257 589 1233 q 542 1314 542 1281 q 565 1369 542 1346 q 622 1393 589 1393 q 678 1369 654 1393 q 701 1314 701 1346 m 481 1314 q 458 1257 481 1281 q 401 1233 435 1233 q 345 1257 368 1233 q 322 1314 322 1281 q 346 1369 322 1346 q 401 1393 369 1393 q 457 1369 433 1393 q 481 1314 481 1346 z "},"å":{"ha":1167,"x_min":50,"x_max":1117,"o":"m 1117 -1 l 1075 -1 l 625 1196 l 668 1196 l 1117 -1 m 974 0 l 863 0 l 818 122 l 207 122 l 163 0 l 50 0 l 513 1257 l 974 0 m 315 26 l 304 -1 l 263 -1 l 274 26 l 315 26 m 778 226 l 513 950 l 246 226 l 778 226 m 563 542 l 422 322 l 381 322 l 513 678 l 563 542 m 676 1393 q 627 1274 676 1324 q 508 1225 578 1225 q 389 1274 439 1225 q 339 1393 339 1324 q 389 1513 339 1463 q 508 1563 439 1563 q 627 1513 578 1563 q 676 1393 676 1463 m 614 1393 q 583 1469 614 1438 q 508 1500 551 1500 q 433 1469 465 1500 q 401 1393 401 1438 q 433 1319 401 1350 q 508 1288 465 1288 q 583 1319 551 1288 q 614 1393 614 1350 z "},"æ":{"ha":1531,"x_min":50,"x_max":1481,"o":"m 1439 975 l 1161 975 l 1031 551 l 1031 996 l 1396 996 l 1396 1196 l 1439 1196 l 1439 975 m 1442 236 l 1074 236 l 1074 197 l 1031 197 l 1031 257 l 1399 257 l 1399 551 l 1442 551 l 1442 236 m 1481 0 l 1439 0 l 1439 197 l 1481 197 l 1481 0 m 1354 0 l 832 0 l 832 351 l 415 351 l 176 0 l 50 0 l 857 1196 l 1311 1196 l 1311 1089 l 938 1089 l 938 457 l 1314 457 l 1314 351 l 938 351 l 938 106 l 1354 106 l 1354 0 m 508 257 l 332 0 l 290 0 l 465 257 l 508 257 m 832 457 l 832 969 l 485 457 l 832 457 m 738 597 l 706 551 l 664 551 l 738 661 l 738 597 z "},"ç":{"ha":1182,"x_min":50,"x_max":1132,"o":"m 1104 1072 l 1019 946 q 989 964 1003 957 l 1075 1093 l 1104 1072 m 1132 83 l 1101 64 l 989 233 q 1019 251 1011 244 l 1132 83 m 1003 85 q 665 -17 851 -17 q 231 164 411 -17 q 50 597 50 344 q 231 1033 50 851 q 665 1214 411 1214 q 1003 1113 847 1214 l 946 1024 q 665 1107 821 1107 q 305 958 454 1107 q 156 597 156 808 q 306 238 156 388 q 665 89 456 89 q 946 172 818 89 l 1003 85 m 718 993 q 438 863 553 983 q 324 576 324 743 q 494 242 324 368 q 688 183 583 189 l 665 183 q 453 242 553 183 q 305 391 360 296 q 250 597 250 486 q 372 892 250 769 q 665 1014 494 1014 q 718 993 674 1014 m 743 -231 q 672 -323 743 -285 q 501 -361 601 -361 q 453 -361 485 -361 q 406 -360 421 -360 l 397 -322 l 413 -322 q 547 -297 490 -322 q 603 -236 603 -271 q 553 -177 603 -201 q 432 -150 504 -153 l 536 26 l 621 26 l 546 -103 q 686 -147 629 -111 q 743 -231 743 -183 z "},"è":{"ha":750,"x_min":50,"x_max":700,"o":"m 660 972 l 401 972 l 250 554 l 250 1000 l 618 1000 l 618 1197 l 660 1197 l 660 972 m 572 0 l 50 0 l 50 1197 l 531 1197 l 531 1093 l 157 1093 l 157 458 l 533 458 l 533 354 l 157 354 l 157 104 l 572 104 l 572 0 m 660 258 l 293 258 l 293 200 l 250 200 l 250 286 l 618 286 l 618 554 l 660 554 l 660 258 m 700 -1 l 657 -1 l 657 200 l 700 200 l 700 -1 m 519 1232 l 443 1232 l 189 1515 l 347 1515 l 519 1232 z "},"é":{"ha":750,"x_min":50,"x_max":700,"o":"m 660 972 l 401 972 l 250 554 l 250 1000 l 618 1000 l 618 1197 l 660 1197 l 660 972 m 572 0 l 50 0 l 50 1197 l 531 1197 l 531 1093 l 157 1093 l 157 458 l 533 458 l 533 354 l 157 354 l 157 104 l 572 104 l 572 0 m 660 258 l 293 258 l 293 200 l 250 200 l 250 286 l 618 286 l 618 554 l 660 554 l 660 258 m 700 -1 l 657 -1 l 657 200 l 700 200 l 700 -1 m 617 1515 l 363 1232 l 286 1232 l 458 1515 l 617 1515 z "},"ê":{"ha":750,"x_min":50,"x_max":700,"o":"m 660 972 l 401 972 l 250 554 l 250 1000 l 618 1000 l 618 1197 l 660 1197 l 660 972 m 572 0 l 50 0 l 50 1197 l 531 1197 l 531 1093 l 157 1093 l 157 458 l 533 458 l 533 354 l 157 354 l 157 104 l 572 104 l 572 0 m 660 258 l 293 258 l 293 200 l 250 200 l 250 286 l 618 286 l 618 554 l 660 554 l 660 258 m 700 -1 l 657 -1 l 657 200 l 700 200 l 700 -1 m 568 1239 l 510 1239 l 308 1404 l 108 1239 l 50 1239 l 271 1515 l 347 1515 l 568 1239 z "},"ë":{"ha":750,"x_min":50,"x_max":700,"o":"m 660 972 l 401 972 l 250 554 l 250 1000 l 618 1000 l 618 1197 l 660 1197 l 660 972 m 572 0 l 50 0 l 50 1197 l 531 1197 l 531 1093 l 157 1093 l 157 458 l 533 458 l 533 354 l 157 354 l 157 104 l 572 104 l 572 0 m 660 258 l 293 258 l 293 200 l 250 200 l 250 286 l 618 286 l 618 554 l 660 554 l 660 258 m 700 -1 l 657 -1 l 657 200 l 700 200 l 700 -1 m 485 1314 q 461 1257 485 1281 q 406 1233 438 1233 q 349 1257 372 1233 q 325 1314 325 1281 q 349 1369 325 1346 q 406 1393 372 1393 q 461 1369 438 1393 q 485 1314 485 1346 m 264 1314 q 241 1257 264 1281 q 185 1233 218 1233 q 128 1257 151 1233 q 106 1314 106 1281 q 129 1369 106 1346 q 185 1393 153 1393 q 240 1369 217 1393 q 264 1314 264 1346 z "},"ì":{"ha":385,"x_min":-186,"x_max":335,"o":"m 335 1199 l 293 0 l 250 0 l 250 1199 l 335 1199 m 154 0 l 50 0 l 50 1199 l 154 1199 l 154 0 m 144 1232 l 68 1232 l -186 1515 l -28 1515 l 144 1232 z "},"í":{"ha":385,"x_min":50,"x_max":394,"o":"m 335 1199 l 293 0 l 250 0 l 250 1199 l 335 1199 m 154 0 l 50 0 l 50 1199 l 154 1199 l 154 0 m 394 1515 l 140 1232 l 64 1232 l 236 1515 l 394 1515 z "},"î":{"ha":385,"x_min":-161,"x_max":357,"o":"m 335 1199 l 293 0 l 250 0 l 250 1199 l 335 1199 m 154 0 l 50 0 l 50 1199 l 154 1199 l 154 0 m 357 1239 l 299 1239 l 97 1404 l -103 1239 l -161 1239 l 60 1515 l 136 1515 l 357 1239 z "},"ï":{"ha":385,"x_min":-89,"x_max":335,"o":"m 335 1199 l 293 0 l 250 0 l 250 1199 l 335 1199 m 154 0 l 50 0 l 50 1199 l 154 1199 l 154 0 m 290 1314 q 267 1257 290 1281 q 211 1233 243 1233 q 154 1257 178 1233 q 131 1314 131 1281 q 154 1369 131 1346 q 211 1393 178 1393 q 267 1369 243 1393 q 290 1314 290 1346 m 69 1314 q 47 1257 69 1281 q -10 1233 24 1233 q -66 1257 -43 1233 q -89 1314 -89 1281 q -65 1369 -89 1346 q -10 1393 -42 1393 q 46 1369 22 1393 q 69 1314 69 1346 z "},"ð":{"ha":944,"x_min":50,"x_max":894,"o":"m 894 597 q 804 253 894 417 q 560 -3 714 90 l 518 -3 q 762 253 671 90 q 853 597 853 417 q 763 939 853 776 q 522 1196 674 1101 l 565 1196 q 806 939 717 1101 q 894 597 894 776 m 757 597 q 608 196 757 372 q 233 0 456 17 l 176 -4 l 176 351 l 50 351 l 50 457 l 176 457 l 176 1200 l 233 1196 q 608 999 456 1179 q 757 597 757 824 m 653 597 q 549 906 653 765 q 282 1082 444 1046 l 282 457 l 435 457 l 435 351 l 282 351 l 282 115 q 549 290 444 151 q 653 597 653 429 m 444 888 l 418 551 l 376 551 l 376 939 q 444 888 410 919 m 540 351 q 483 286 518 321 l 322 286 l 322 306 l 499 306 l 499 551 l 540 551 l 540 351 z "},"ñ":{"ha":1169,"x_min":50,"x_max":1119,"o":"m 1119 -1 l 1078 -1 l 1078 1168 l 1119 1168 l 1119 -1 m 792 476 l 222 1168 l 263 1168 l 792 526 l 792 476 m 986 -72 l 153 953 l 153 0 l 50 0 l 50 1240 l 883 215 l 883 1168 l 986 1168 l 986 -72 m 342 575 l 286 0 l 246 0 l 246 693 l 342 575 m 796 1397 q 753 1285 796 1331 q 644 1239 710 1239 q 596 1247 619 1239 l 418 1306 q 393 1310 406 1310 q 310 1235 326 1310 l 286 1235 l 286 1244 q 329 1351 283 1307 q 439 1396 375 1396 q 485 1389 463 1396 l 664 1331 q 690 1326 678 1326 q 767 1382 751 1326 q 771 1397 768 1388 l 796 1397 z "},"ò":{"ha":1465,"x_min":50,"x_max":1415,"o":"m 1415 597 q 1325 250 1415 411 q 1083 -1 1236 94 l 1042 -1 q 1282 250 1193 94 q 1372 597 1372 411 q 1282 944 1372 783 q 1043 1197 1194 1100 l 1085 1197 q 1325 944 1236 1100 q 1415 597 1415 783 m 1279 597 q 1098 164 1279 344 q 663 -17 917 -17 q 229 163 408 -17 q 50 597 50 343 q 229 1033 50 851 q 663 1214 408 1214 q 1098 1033 917 1214 q 1279 597 1279 851 m 1172 597 q 1023 958 1172 808 q 663 1107 874 1107 q 303 958 453 1107 q 154 597 154 808 q 303 238 154 388 q 663 89 453 89 q 1023 238 874 89 q 1172 597 1172 388 m 715 993 q 437 863 551 983 q 322 576 322 742 q 492 242 322 368 q 685 183 583 189 l 663 183 q 372 305 493 183 q 250 597 250 426 q 371 892 250 769 q 663 1014 492 1014 q 715 993 671 1014 m 756 1246 l 679 1246 l 425 1529 l 583 1529 l 756 1246 z "},"ó":{"ha":1465,"x_min":50,"x_max":1415,"o":"m 1415 597 q 1325 250 1415 411 q 1083 -1 1236 94 l 1042 -1 q 1282 250 1193 94 q 1372 597 1372 411 q 1282 944 1372 783 q 1043 1197 1194 1100 l 1085 1197 q 1325 944 1236 1100 q 1415 597 1415 783 m 1279 597 q 1098 164 1279 344 q 663 -17 917 -17 q 229 163 408 -17 q 50 597 50 343 q 229 1033 50 851 q 663 1214 408 1214 q 1098 1033 917 1214 q 1279 597 1279 851 m 1172 597 q 1023 958 1172 808 q 663 1107 874 1107 q 303 958 453 1107 q 154 597 154 808 q 303 238 154 388 q 663 89 453 89 q 1023 238 874 89 q 1172 597 1172 388 m 715 993 q 437 863 551 983 q 322 576 322 742 q 492 242 322 368 q 685 183 583 189 l 663 183 q 372 305 493 183 q 250 597 250 426 q 371 892 250 769 q 663 1014 492 1014 q 715 993 671 1014 m 978 1529 l 724 1246 l 647 1246 l 819 1529 l 978 1529 z "},"ô":{"ha":1465,"x_min":50,"x_max":1415,"o":"m 1415 597 q 1325 250 1415 411 q 1083 -1 1236 94 l 1042 -1 q 1282 250 1193 94 q 1372 597 1372 411 q 1282 944 1372 783 q 1043 1197 1194 1100 l 1085 1197 q 1325 944 1236 1100 q 1415 597 1415 783 m 1279 597 q 1098 164 1279 344 q 663 -17 917 -17 q 229 163 408 -17 q 50 597 50 343 q 229 1033 50 851 q 663 1214 408 1214 q 1098 1033 917 1214 q 1279 597 1279 851 m 1172 597 q 1023 958 1172 808 q 663 1107 874 1107 q 303 958 453 1107 q 154 597 154 808 q 303 238 154 388 q 663 89 453 89 q 1023 238 874 89 q 1172 597 1172 388 m 715 993 q 437 863 551 983 q 322 576 322 742 q 492 242 322 368 q 685 183 583 189 l 663 183 q 372 305 493 183 q 250 597 250 426 q 371 892 250 769 q 663 1014 492 1014 q 715 993 671 1014 m 924 1239 l 865 1239 l 664 1404 l 464 1239 l 406 1239 l 626 1515 l 703 1515 l 924 1239 z "},"õ":{"ha":1465,"x_min":50,"x_max":1415,"o":"m 1415 597 q 1325 250 1415 411 q 1083 -1 1236 94 l 1042 -1 q 1282 250 1193 94 q 1372 597 1372 411 q 1282 944 1372 783 q 1043 1197 1194 1100 l 1085 1197 q 1325 944 1236 1100 q 1415 597 1415 783 m 1279 597 q 1098 164 1279 344 q 663 -17 917 -17 q 229 163 408 -17 q 50 597 50 343 q 229 1033 50 851 q 663 1214 408 1214 q 1098 1033 917 1214 q 1279 597 1279 851 m 1172 597 q 1023 958 1172 808 q 663 1107 874 1107 q 303 958 453 1107 q 154 597 154 808 q 303 238 154 388 q 663 89 453 89 q 1023 238 874 89 q 1172 597 1172 388 m 715 993 q 437 863 551 983 q 322 576 322 742 q 492 242 322 368 q 685 183 583 189 l 663 183 q 372 305 493 183 q 250 597 250 426 q 371 892 250 769 q 663 1014 492 1014 q 715 993 671 1014 m 907 1411 q 864 1299 907 1344 q 756 1253 821 1253 q 707 1261 731 1253 l 529 1319 q 504 1324 517 1324 q 421 1249 438 1324 l 397 1249 l 397 1258 q 440 1365 394 1321 q 550 1410 486 1410 q 596 1403 574 1410 l 775 1344 q 801 1340 789 1340 q 878 1396 863 1340 q 882 1411 879 1401 l 907 1411 z "},"ö":{"ha":1465,"x_min":50,"x_max":1415,"o":"m 1415 597 q 1325 250 1415 411 q 1083 -1 1236 94 l 1042 -1 q 1282 250 1193 94 q 1372 597 1372 411 q 1282 944 1372 783 q 1043 1197 1194 1100 l 1085 1197 q 1325 944 1236 1100 q 1415 597 1415 783 m 1279 597 q 1098 164 1279 344 q 663 -17 917 -17 q 229 163 408 -17 q 50 597 50 343 q 229 1033 50 851 q 663 1214 408 1214 q 1098 1033 917 1214 q 1279 597 1279 851 m 1172 597 q 1023 958 1172 808 q 663 1107 874 1107 q 303 958 453 1107 q 154 597 154 808 q 303 238 154 388 q 663 89 453 89 q 1023 238 874 89 q 1172 597 1172 388 m 715 993 q 437 863 551 983 q 322 576 322 742 q 492 242 322 368 q 685 183 583 189 l 663 183 q 372 305 493 183 q 250 597 250 426 q 371 892 250 769 q 663 1014 492 1014 q 715 993 671 1014 m 851 1314 q 828 1257 851 1281 q 772 1233 804 1233 q 715 1257 739 1233 q 692 1314 692 1281 q 715 1369 692 1346 q 772 1393 739 1393 q 828 1369 804 1393 q 851 1314 851 1346 m 631 1314 q 608 1257 631 1281 q 551 1233 585 1233 q 495 1257 518 1233 q 472 1314 472 1281 q 496 1369 472 1346 q 551 1393 519 1393 q 607 1369 583 1393 q 631 1314 631 1346 z "},"÷":{"ha":50,"x_min":0,"x_max":0,"o":""},"ø":{"ha":1447,"x_min":50,"x_max":1397,"o":"m 1397 1088 l 1264 953 q 1375 579 1375 785 q 1286 243 1375 400 q 1056 -1 1201 93 l 1014 -1 q 1246 243 1161 92 q 1335 579 1335 400 q 1222 953 1335 783 l 1356 1088 l 1204 1242 l 1244 1242 l 1397 1088 m 1242 579 q 1067 158 1242 332 q 646 -17 893 -17 q 263 122 431 -17 l 153 15 l 82 88 l 190 196 q 50 579 50 361 q 225 999 50 825 q 646 1174 400 1174 q 1029 1035 864 1174 l 1138 1143 l 1210 1069 l 1101 963 q 1242 579 1242 796 m 957 961 q 646 1074 824 1074 q 297 928 442 1074 q 151 579 151 783 q 263 268 151 404 l 957 961 m 1140 579 q 1029 890 1140 753 l 333 196 q 646 85 468 85 q 995 229 850 85 q 1140 579 1140 374 m 1025 715 l 522 213 q 667 176 588 181 l 646 176 q 481 213 557 176 l 1013 744 q 1025 715 1018 735 m 667 981 q 395 857 507 974 q 283 579 283 740 q 307 442 283 515 l 279 413 q 243 579 243 492 q 362 863 243 744 q 646 982 481 982 q 657 982 650 982 q 667 981 664 981 z "},"ù":{"ha":1197,"x_min":50,"x_max":1147,"o":"m 1147 479 q 1075 203 1147 333 q 885 -1 1004 78 l 842 -1 q 1034 204 963 76 q 1106 479 1106 332 l 1106 1197 l 1147 1197 l 1147 479 m 1010 479 q 869 141 1010 282 q 531 0 728 0 q 191 141 332 0 q 50 479 50 282 l 50 1197 l 156 1197 l 156 479 q 265 215 156 325 q 531 104 375 104 q 794 215 683 104 q 906 479 906 325 l 906 1197 l 1010 1197 l 1010 479 m 551 200 l 531 200 q 332 282 415 200 q 249 479 249 364 l 249 1197 l 365 1197 l 292 479 q 367 290 292 371 q 551 200 443 210 m 672 1232 l 596 1232 l 342 1515 l 500 1515 l 672 1232 z "},"ú":{"ha":1197,"x_min":50,"x_max":1147,"o":"m 1147 479 q 1075 203 1147 333 q 885 -1 1004 78 l 842 -1 q 1034 204 963 76 q 1106 479 1106 332 l 1106 1197 l 1147 1197 l 1147 479 m 1010 479 q 869 141 1010 282 q 531 0 728 0 q 191 141 332 0 q 50 479 50 282 l 50 1197 l 156 1197 l 156 479 q 265 215 156 325 q 531 104 375 104 q 794 215 683 104 q 906 479 906 325 l 906 1197 l 1010 1197 l 1010 479 m 551 200 l 531 200 q 332 282 415 200 q 249 479 249 364 l 249 1197 l 365 1197 l 292 479 q 367 290 292 371 q 551 200 443 210 m 825 1515 l 571 1232 l 494 1232 l 667 1515 l 825 1515 z "},"û":{"ha":1197,"x_min":50,"x_max":1147,"o":"m 1147 479 q 1075 203 1147 333 q 885 -1 1004 78 l 842 -1 q 1034 204 963 76 q 1106 479 1106 332 l 1106 1197 l 1147 1197 l 1147 479 m 1010 479 q 869 141 1010 282 q 531 0 728 0 q 191 141 332 0 q 50 479 50 282 l 50 1197 l 156 1197 l 156 479 q 265 215 156 325 q 531 104 375 104 q 794 215 683 104 q 906 479 906 325 l 906 1197 l 1010 1197 l 1010 479 m 551 200 l 531 200 q 332 282 415 200 q 249 479 249 364 l 249 1197 l 365 1197 l 292 479 q 367 290 292 371 q 551 200 443 210 m 804 1239 l 746 1239 l 544 1404 l 344 1239 l 286 1239 l 507 1515 l 583 1515 l 804 1239 z "},"ü":{"ha":1197,"x_min":50,"x_max":1147,"o":"m 1147 479 q 1075 203 1147 333 q 885 -1 1004 78 l 842 -1 q 1034 204 963 76 q 1106 479 1106 332 l 1106 1197 l 1147 1197 l 1147 479 m 1010 479 q 869 141 1010 282 q 531 0 728 0 q 191 141 332 0 q 50 479 50 282 l 50 1197 l 156 1197 l 156 479 q 265 215 156 325 q 531 104 375 104 q 794 215 683 104 q 906 479 906 325 l 906 1197 l 1010 1197 l 1010 479 m 551 200 l 531 200 q 332 282 415 200 q 249 479 249 364 l 249 1197 l 365 1197 l 292 479 q 367 290 292 371 q 551 200 443 210 m 749 1314 q 725 1257 749 1281 q 669 1233 701 1233 q 613 1257 636 1233 q 589 1314 589 1281 q 613 1369 589 1346 q 669 1393 636 1393 q 725 1369 701 1393 q 749 1314 749 1346 m 528 1314 q 505 1257 528 1281 q 449 1233 482 1233 q 392 1257 415 1233 q 369 1314 369 1281 q 393 1369 369 1346 q 449 1393 417 1393 q 504 1369 481 1393 q 528 1314 528 1346 z "},"ý":{"ha":1375,"x_min":50,"x_max":1325,"o":"m 1325 1197 l 665 -1 l 624 -1 l 1283 1197 l 1325 1197 m 719 785 l 706 756 l 315 1197 l 431 1197 l 719 785 m 1174 1197 l 518 0 l 397 0 l 668 493 l 50 1197 l 190 1197 l 722 592 l 1054 1197 l 1174 1197 m 964 1515 l 710 1232 l 633 1232 l 806 1515 l 964 1515 z "},"þ":{"ha":756,"x_min":50,"x_max":706,"o":"m 706 596 q 588 267 706 411 q 290 85 471 122 l 290 0 l 247 0 l 247 85 q 546 267 428 122 q 664 596 664 411 q 547 925 664 781 q 247 1108 429 1069 l 247 1196 l 290 1196 l 290 1108 q 588 925 471 1069 q 706 596 706 781 m 568 596 q 447 299 568 424 q 154 168 326 174 l 154 0 l 50 0 l 50 1196 l 154 1196 l 154 1024 q 447 894 326 1019 q 568 596 568 769 m 464 596 q 374 819 464 725 q 154 919 283 914 l 154 272 q 374 373 283 279 q 464 596 464 467 m 290 424 q 247 394 271 406 l 247 797 q 290 768 267 789 l 290 424 z "},"ÿ":{"ha":1375,"x_min":50,"x_max":1325,"o":"m 1325 1197 l 665 -1 l 624 -1 l 1283 1197 l 1325 1197 m 719 785 l 706 756 l 315 1197 l 431 1197 l 719 785 m 1174 1197 l 518 0 l 397 0 l 668 493 l 50 1197 l 190 1197 l 722 592 l 1054 1197 l 1174 1197 m 874 1314 q 850 1257 874 1281 q 794 1233 826 1233 q 738 1257 761 1233 q 714 1314 714 1281 q 738 1369 714 1346 q 794 1393 761 1393 q 850 1369 826 1393 q 874 1314 874 1346 m 653 1314 q 630 1257 653 1281 q 574 1233 607 1233 q 517 1257 540 1233 q 494 1314 494 1281 q 518 1369 494 1346 q 574 1393 542 1393 q 629 1369 606 1393 q 653 1314 653 1346 z "},"ˇ":{"ha":618,"x_min":50,"x_max":568,"o":"m 568 1511 l 347 1235 l 271 1235 l 50 1511 l 108 1511 l 310 1346 l 510 1511 l 568 1511 z "},"˚":{"ha":438,"x_min":50,"x_max":388,"o":"m 388 1393 q 338 1274 388 1324 q 219 1225 289 1225 q 100 1274 150 1225 q 50 1393 50 1324 q 100 1513 50 1463 q 219 1563 150 1563 q 338 1513 289 1563 q 388 1393 388 1463 m 325 1393 q 294 1469 325 1438 q 219 1500 263 1500 q 144 1469 176 1500 q 113 1393 113 1438 q 144 1319 113 1350 q 219 1288 176 1288 q 294 1319 263 1288 q 325 1393 325 1350 z "}}}
